<?xml version="1.0" encoding="UTF-8"?>
<svg width="68.012642mm" height="60.413486mm" viewBox="0 0 68.012642 60.413487"
     xmlns="http://www.w3.org/2000/svg">
  <line x1="22.3013" y1="42.0543" x2="10.7031" y2="55.5713" stroke="#D95319" stroke-width="0.3" opacity="0.8"/>
  <line x1="44.0663" y1="16.6887" x2="56.7375" y2="1.9213" stroke="#D95319" stroke-width="0.3" opacity="0.8"/>
  <line x1="42.3831" y1="43.6150" x2="54.2177" y2="59.0594" stroke="#0072BD" stroke-width="0.3" opacity="0.8"/>
  <line x1="22.4968" y1="17.6628" x2="12.1082" y2="4.1054" stroke="#0072BD" stroke-width="0.3" opacity="0.8"/>
  <line x1="45.9517" y1="45.8097" x2="63.2333" y2="47.2813" stroke="#0072BD" stroke-width="0.3" opacity="0.8"/>
  <line x1="19.0336" y1="43.5175" x2="0.3892" y2="41.9299" stroke="#D95319" stroke-width="0.3" opacity="0.8"/>
  <line x1="41.2462" y1="40.4566" x2="41.2364" y2="60.1099" stroke="#0072BD" stroke-width="0.3" opacity="0.8"/>
  <line x1="49.6118" y1="13.0316" x2="67.6953" y2="10.7113" stroke="#D95319" stroke-width="0.3" opacity="0.8"/>
  <line x1="20.0853" y1="16.8200" x2="3.0221" y2="19.0094" stroke="#0072BD" stroke-width="0.3" opacity="0.8"/>
  <line x1="41.2518" y1="29.2227" x2="41.2662" y2="0.3338" stroke="#D95319" stroke-width="0.3" opacity="0.8"/>
  <line x1="22.3013" y1="42.0543" x2="11.6446" y2="55.9694" stroke="#FFDCDC" stroke-width="0.3" opacity="0.8"/>
  <line x1="21.8850" y1="42.5069" x2="9.6152" y2="55.0185" stroke="#FFDCDC" stroke-width="0.3" opacity="0.8"/>
  <line x1="22.0990" y1="42.2886" x2="10.6517" y2="55.5474" stroke="#FFDCDC" stroke-width="0.3" opacity="0.8"/>
  <line x1="22.0990" y1="42.2886" x2="41.3979" y2="22.6093" stroke="#D2E6FF" stroke-width="0.3" opacity="0.8"/>
  <line x1="21.8828" y1="17.1166" x2="6.8837" y2="6.7774" stroke="#D2E6FF" stroke-width="0.3" opacity="0.8"/>
  <line x1="15.5092" y1="42.0010" x2="3.7670" y2="35.0478" stroke="#FFDCDC" stroke-width="0.3" opacity="0.8"/>
  <line x1="22.3013" y1="42.0543" x2="42.8935" y2="18.2037" stroke="#D2E6FF" stroke-width="0.3" opacity="0.8"/>
  <line x1="12.7015" y1="39.9180" x2="8.9408" y2="36.8672" stroke="#FFDCDC" stroke-width="0.3" opacity="0.8"/>
  <line x1="20.9044" y1="16.8006" x2="1.7075" y2="13.8849" stroke="#D2E6FF" stroke-width="0.3" opacity="0.8"/>
  <line x1="21.6533" y1="16.9964" x2="4.9439" y2="8.2431" stroke="#D2E6FF" stroke-width="0.3" opacity="0.8"/>
  <line x1="20.6379" y1="16.7851" x2="1.7963" y2="15.6895" stroke="#D2E6FF" stroke-width="0.3" opacity="0.8"/>
  <line x1="22.6735" y1="17.9119" x2="52.1503" y2="59.4624" stroke="#FFDCDC" stroke-width="0.3" opacity="0.8"/>
  <line x1="22.4968" y1="17.6628" x2="12.7132" y2="3.8719" stroke="#D2E6FF" stroke-width="0.3" opacity="0.8"/>
  <line x1="22.6735" y1="17.9119" x2="14.4118" y2="3.2869" stroke="#D2E6FF" stroke-width="0.3" opacity="0.8"/>
  <line x1="22.4921" y1="41.8052" x2="53.5096" y2="1.3038" stroke="#D2E6FF" stroke-width="0.3" opacity="0.8"/>
  <line x1="21.1691" y1="43.0522" x2="6.2712" y2="52.6737" stroke="#FFDCDC" stroke-width="0.3" opacity="0.8"/>
  <line x1="21.4203" y1="42.8900" x2="41.2529" y2="30.0815" stroke="#D2E6FF" stroke-width="0.3" opacity="0.8"/>
  <line x1="17.7590" y1="17.6146" x2="7.9378" y2="22.2071" stroke="#D2E6FF" stroke-width="0.3" opacity="0.8"/>
  <line x1="22.6716" y1="41.5427" x2="13.4810" y2="56.5180" stroke="#FFDCDC" stroke-width="0.3" opacity="0.8"/>
  <line x1="18.3423" y1="17.3418" x2="6.4922" y2="22.0103" stroke="#D2E6FF" stroke-width="0.3" opacity="0.8"/>
  <line x1="18.9296" y1="17.1105" x2="5.0856" y2="21.3322" stroke="#D2E6FF" stroke-width="0.3" opacity="0.8"/>
  <line x1="19.5133" y1="16.9324" x2="4.0874" y2="20.4206" stroke="#D2E6FF" stroke-width="0.3" opacity="0.8"/>
  <line x1="19.8012" y1="16.8673" x2="3.4121" y2="19.5960" stroke="#D2E6FF" stroke-width="0.3" opacity="0.8"/>
  <line x1="20.0853" y1="16.8200" x2="2.7605" y2="18.5513" stroke="#D2E6FF" stroke-width="0.3" opacity="0.8"/>
  <line x1="20.3645" y1="16.7921" x2="2.1945" y2="17.2574" stroke="#D2E6FF" stroke-width="0.3" opacity="0.8"/>
  <line x1="22.9789" y1="18.5194" x2="17.3394" y2="2.4372" stroke="#D2E6FF" stroke-width="0.3" opacity="0.8"/>
  <line x1="23.1057" y1="18.8809" x2="19.6312" y2="1.8760" stroke="#D2E6FF" stroke-width="0.3" opacity="0.8"/>
  <line x1="16.1121" y1="18.5604" x2="13.1724" y2="20.3811" stroke="#D2E6FF" stroke-width="0.3" opacity="0.8"/>
  <line x1="16.6360" y1="18.2360" x2="11.0240" y2="21.4846" stroke="#D2E6FF" stroke-width="0.3" opacity="0.8"/>
  <line x1="18.2477" y1="43.3371" x2="1.0651" y2="37.8449" stroke="#FFDCDC" stroke-width="0.3" opacity="0.8"/>
  <line x1="24.4737" y1="30.8307" x2="24.3535" y2="0.9222" stroke="#D2E6FF" stroke-width="0.3" opacity="0.8"/>
  <line x1="23.1057" y1="18.8809" x2="37.5278" y2="60.0084" stroke="#FFDCDC" stroke-width="0.3" opacity="0.8"/>
  <line x1="17.1876" y1="17.9167" x2="9.4422" y2="22.0113" stroke="#D2E6FF" stroke-width="0.3" opacity="0.8"/>
  <line x1="23.3241" y1="19.9500" x2="31.4283" y2="59.6139" stroke="#FFDCDC" stroke-width="0.3" opacity="0.8"/>
  <line x1="24.2486" y1="26.4515" x2="27.4461" y2="59.2152" stroke="#FFDCDC" stroke-width="0.3" opacity="0.8"/>
  <line x1="16.2563" y1="42.4434" x2="2.8472" y2="35.5551" stroke="#FFDCDC" stroke-width="0.3" opacity="0.8"/>
  <line x1="23.7071" y1="22.1026" x2="30.0295" y2="59.4864" stroke="#FFDCDC" stroke-width="0.3" opacity="0.8"/>
  <line x1="20.3645" y1="16.7921" x2="47.3512" y2="14.0954" stroke="#FFDCDC" stroke-width="0.3" opacity="0.8"/>
  <line x1="24.4737" y1="30.8307" x2="25.1259" y2="58.9160" stroke="#FFDCDC" stroke-width="0.3" opacity="0.8"/>
  <line x1="23.5247" y1="21.0240" x2="30.7199" y2="59.5515" stroke="#FFDCDC" stroke-width="0.3" opacity="0.8"/>
  <line x1="24.4020" y1="28.6394" x2="26.2540" y2="59.0665" stroke="#FFDCDC" stroke-width="0.3" opacity="0.8"/>
  <line x1="24.3616" y1="35.2073" x2="27.0041" y2="0.5596" stroke="#D2E6FF" stroke-width="0.3" opacity="0.8"/>
  <line x1="24.4781" y1="31.9264" x2="24.5861" y2="58.8393" stroke="#FFDCDC" stroke-width="0.3" opacity="0.8"/>
  <line x1="16.2563" y1="42.4434" x2="45.9550" y2="60.0297" stroke="#D2E6FF" stroke-width="0.3" opacity="0.8"/>
  <line x1="24.1421" y1="25.3601" x2="28.0667" y2="59.2835" stroke="#FFDCDC" stroke-width="0.3" opacity="0.8"/>
  <line x1="24.0161" y1="24.2711" x2="28.7037" y2="59.3529" stroke="#FFDCDC" stroke-width="0.3" opacity="0.8"/>
  <line x1="23.8710" y1="23.1851" x2="29.3586" y2="59.4233" stroke="#FFDCDC" stroke-width="0.3" opacity="0.8"/>
  <line x1="17.1876" y1="17.9167" x2="47.1349" y2="0.5807" stroke="#FFDCDC" stroke-width="0.3" opacity="0.8"/>
  <line x1="22.1005" y1="17.2667" x2="41.2535" y2="30.4694" stroke="#FFDCDC" stroke-width="0.3" opacity="0.8"/>
  <line x1="17.7590" y1="17.6146" x2="49.5783" y2="0.7933" stroke="#FFDCDC" stroke-width="0.3" opacity="0.8"/>
  <line x1="17.0297" y1="42.8407" x2="49.9593" y2="59.7568" stroke="#D2E6FF" stroke-width="0.3" opacity="0.8"/>
  <line x1="20.6278" y1="43.3114" x2="41.2757" y2="36.6137" stroke="#D2E6FF" stroke-width="0.3" opacity="0.8"/>
  <line x1="21.6533" y1="16.9964" x2="41.3238" y2="24.5063" stroke="#FFDCDC" stroke-width="0.3" opacity="0.8"/>
  <line x1="15.5092" y1="42.0010" x2="42.8094" y2="60.0982" stroke="#D2E6FF" stroke-width="0.3" opacity="0.8"/>
  <line x1="18.3423" y1="17.3418" x2="52.8586" y2="1.2015" stroke="#FFDCDC" stroke-width="0.3" opacity="0.8"/>
  <line x1="21.8828" y1="17.1166" x2="41.2655" y2="27.2705" stroke="#FFDCDC" stroke-width="0.3" opacity="0.8"/>
  <line x1="20.6379" y1="16.7851" x2="44.5743" y2="16.1722" stroke="#FFDCDC" stroke-width="0.3" opacity="0.8"/>
  <line x1="18.9296" y1="17.1105" x2="57.2077" y2="2.0306" stroke="#FFDCDC" stroke-width="0.3" opacity="0.8"/>
  <line x1="21.1632" y1="16.8399" x2="41.9779" y2="20.0014" stroke="#FFDCDC" stroke-width="0.3" opacity="0.8"/>
  <line x1="18.2477" y1="43.3371" x2="58.0659" y2="57.8558" stroke="#D2E6FF" stroke-width="0.3" opacity="0.8"/>
  <line x1="20.9044" y1="16.8006" x2="42.9715" y2="18.0839" stroke="#FFDCDC" stroke-width="0.3" opacity="0.8"/>
  <line x1="18.6713" y1="43.4725" x2="60.3226" y2="56.7860" stroke="#D2E6FF" stroke-width="0.3" opacity="0.8"/>
  <line x1="19.5133" y1="16.9324" x2="62.6661" y2="3.7730" stroke="#FFDCDC" stroke-width="0.3" opacity="0.8"/>
  <line x1="20.0326" y1="43.4748" x2="41.2549" y2="40.6372" stroke="#D2E6FF" stroke-width="0.3" opacity="0.8"/>
  <line x1="22.3055" y1="17.4483" x2="41.2686" y2="34.2424" stroke="#FFDCDC" stroke-width="0.3" opacity="0.8"/>
  <line x1="13.3844" y1="40.4720" x2="37.4625" y2="60.0053" stroke="#D2E6FF" stroke-width="0.3" opacity="0.8"/>
  <line x1="21.4131" y1="16.9047" x2="41.4489" y2="22.0989" stroke="#FFDCDC" stroke-width="0.3" opacity="0.8"/>
  <line x1="14.0773" y1="41.0084" x2="38.6878" y2="60.0603" stroke="#D2E6FF" stroke-width="0.3" opacity="0.8"/>
  <line x1="19.7140" y1="43.5174" x2="41.7475" y2="42.5445" stroke="#D2E6FF" stroke-width="0.3" opacity="0.8"/>
  <line x1="14.0773" y1="41.0084" x2="5.7647" y2="34.9877" stroke="#FFDCDC" stroke-width="0.3" opacity="0.8"/>
  <line x1="19.3811" y1="43.5321" x2="43.2146" y2="44.5335" stroke="#D2E6FF" stroke-width="0.3" opacity="0.8"/>
  <line x1="19.8012" y1="16.8673" x2="66.2440" y2="6.3657" stroke="#FFDCDC" stroke-width="0.3" opacity="0.8"/>
  <line x1="48.3157" y1="45.2383" x2="24.5492" y2="58.8341" stroke="#FFDCDC" stroke-width="0.3" opacity="0.8"/>
  <line x1="45.6549" y1="45.7719" x2="63.4066" y2="49.4046" stroke="#D2E6FF" stroke-width="0.3" opacity="0.8"/>
  <line x1="45.3617" y1="45.7119" x2="63.3938" y2="50.7819" stroke="#D2E6FF" stroke-width="0.3" opacity="0.8"/>
  <line x1="42.2014" y1="43.3554" x2="52.2955" y2="59.4387" stroke="#D2E6FF" stroke-width="0.3" opacity="0.8"/>
  <line x1="45.9517" y1="45.8097" x2="63.3152" y2="48.0211" stroke="#D2E6FF" stroke-width="0.3" opacity="0.8"/>
  <line x1="42.3831" y1="43.6150" x2="53.3257" y2="59.2491" stroke="#D2E6FF" stroke-width="0.3" opacity="0.8"/>
  <line x1="43.2739" y1="17.6489" x2="13.4937" y2="56.5215" stroke="#D2E6FF" stroke-width="0.3" opacity="0.8"/>
  <line x1="20.0853" y1="16.8200" x2="67.5904" y2="8.9109" stroke="#FFDCDC" stroke-width="0.3" opacity="0.8"/>
  <line x1="47.7682" y1="45.5137" x2="56.5633" y2="42.1365" stroke="#D2E6FF" stroke-width="0.3" opacity="0.8"/>
  <line x1="46.5532" y1="45.8145" x2="62.5164" y2="45.3016" stroke="#D2E6FF" stroke-width="0.3" opacity="0.8"/>
  <line x1="41.3483" y1="41.3565" x2="44.6881" y2="60.0653" stroke="#D2E6FF" stroke-width="0.3" opacity="0.8"/>
  <line x1="41.4203" y1="41.6546" x2="45.8593" y2="60.0331" stroke="#D2E6FF" stroke-width="0.3" opacity="0.8"/>
  <line x1="48.8597" y1="44.9271" x2="26.1404" y2="59.0523" stroke="#FFDCDC" stroke-width="0.3" opacity="0.8"/>
  <line x1="43.9748" y1="45.1127" x2="60.8302" y2="56.4591" stroke="#D2E6FF" stroke-width="0.3" opacity="0.8"/>
  <line x1="48.3157" y1="45.2383" x2="54.8530" y2="41.9499" stroke="#D2E6FF" stroke-width="0.3" opacity="0.8"/>
  <line x1="47.4648" y1="45.6302" x2="58.1290" y2="42.5347" stroke="#D2E6FF" stroke-width="0.3" opacity="0.8"/>
  <line x1="47.1606" y1="45.7185" x2="59.8700" y2="43.1649" stroke="#D2E6FF" stroke-width="0.3" opacity="0.8"/>
  <line x1="46.8565" y1="45.7796" x2="61.4074" y2="44.1052" stroke="#D2E6FF" stroke-width="0.3" opacity="0.8"/>
  <line x1="46.2513" y1="45.8242" x2="63.1150" y2="46.6403" stroke="#D2E6FF" stroke-width="0.3" opacity="0.8"/>
  <line x1="42.5983" y1="18.6873" x2="19.2336" y2="57.9128" stroke="#D2E6FF" stroke-width="0.3" opacity="0.8"/>
  <line x1="24.1119" y1="37.5051" x2="20.8734" y2="58.2317" stroke="#FFDCDC" stroke-width="0.3" opacity="0.8"/>
  <line x1="22.8402" y1="41.2680" x2="47.7795" y2="0.6321" stroke="#D2E6FF" stroke-width="0.3" opacity="0.8"/>
  <line x1="24.2086" y1="36.8860" x2="21.6601" y2="58.3737" stroke="#FFDCDC" stroke-width="0.3" opacity="0.8"/>
  <line x1="41.6170" y1="42.2422" x2="48.0884" y2="59.9190" stroke="#D2E6FF" stroke-width="0.3" opacity="0.8"/>
  <line x1="42.5983" y1="18.6873" x2="52.1219" y2="1.1004" stroke="#FFDCDC" stroke-width="0.3" opacity="0.8"/>
  <line x1="20.9051" y1="43.1931" x2="41.2699" y2="34.5043" stroke="#D2E6FF" stroke-width="0.3" opacity="0.8"/>
  <line x1="41.7403" y1="42.5298" x2="49.1599" y2="59.8362" stroke="#D2E6FF" stroke-width="0.3" opacity="0.8"/>
  <line x1="41.5101" y1="41.9502" x2="46.9886" y2="59.9842" stroke="#D2E6FF" stroke-width="0.3" opacity="0.8"/>
  <line x1="17.4275" y1="43.0203" x2="1.7850" y2="36.6331" stroke="#FFDCDC" stroke-width="0.3" opacity="0.8"/>
  <line x1="23.1457" y1="40.6877" x2="16.0126" y2="57.1872" stroke="#FFDCDC" stroke-width="0.3" opacity="0.8"/>
  <line x1="42.4018" y1="19.0501" x2="21.1567" y2="58.2828" stroke="#D2E6FF" stroke-width="0.3" opacity="0.8"/>
  <line x1="46.6301" y1="14.5366" x2="62.3575" y2="3.6265" stroke="#FFDCDC" stroke-width="0.3" opacity="0.8"/>
  <line x1="22.1005" y1="17.2667" x2="8.8946" y2="5.5713" stroke="#D2E6FF" stroke-width="0.3" opacity="0.8"/>
  <line x1="23.5247" y1="21.0240" x2="20.2618" y2="1.7310" stroke="#D2E6FF" stroke-width="0.3" opacity="0.8"/>
  <line x1="24.4223" y1="34.1152" x2="23.5525" y2="58.6862" stroke="#FFDCDC" stroke-width="0.3" opacity="0.8"/>
  <line x1="41.2606" y1="40.7565" x2="42.1896" y2="60.1038" stroke="#D2E6FF" stroke-width="0.3" opacity="0.8"/>
  <line x1="46.8565" y1="45.7796" x2="7.5252" y2="53.6821" stroke="#FFDCDC" stroke-width="0.3" opacity="0.8"/>
  <line x1="41.2948" y1="41.0568" x2="43.4621" y2="60.0868" stroke="#D2E6FF" stroke-width="0.3" opacity="0.8"/>
  <line x1="48.8436" y1="13.3435" x2="65.4226" y2="5.5484" stroke="#FFDCDC" stroke-width="0.3" opacity="0.8"/>
  <line x1="48.0875" y1="13.6990" x2="64.5261" y2="4.8483" stroke="#FFDCDC" stroke-width="0.3" opacity="0.8"/>
  <line x1="49.6118" y1="13.0316" x2="66.1875" y2="6.3016" stroke="#FFDCDC" stroke-width="0.3" opacity="0.8"/>
  <line x1="46.2513" y1="45.8242" x2="2.0034" y2="47.2459" stroke="#FFDCDC" stroke-width="0.3" opacity="0.8"/>
  <line x1="42.0553" y1="19.8002" x2="25.0048" y2="58.8988" stroke="#D2E6FF" stroke-width="0.3" opacity="0.8"/>
  <line x1="42.4018" y1="19.0501" x2="51.2283" y2="0.9777" stroke="#FFDCDC" stroke-width="0.3" opacity="0.8"/>
  <line x1="21.6588" y1="42.7078" x2="8.5286" y2="54.3720" stroke="#FFDCDC" stroke-width="0.3" opacity="0.8"/>
  <line x1="23.8286" y1="38.7923" x2="19.1911" y2="57.9042" stroke="#FFDCDC" stroke-width="0.3" opacity="0.8"/>
  <line x1="24.4610" y1="33.0214" x2="24.0611" y2="58.7648" stroke="#FFDCDC" stroke-width="0.3" opacity="0.8"/>
  <line x1="23.6377" y1="39.4393" x2="18.2455" y2="57.7067" stroke="#FFDCDC" stroke-width="0.3" opacity="0.8"/>
  <line x1="41.9065" y1="20.1871" x2="26.9227" y2="59.1499" stroke="#D2E6FF" stroke-width="0.3" opacity="0.8"/>
  <line x1="22.8345" y1="18.1969" x2="15.9499" y2="2.8183" stroke="#D2E6FF" stroke-width="0.3" opacity="0.8"/>
  <line x1="22.4968" y1="17.6628" x2="41.2674" y2="38.7114" stroke="#FFDCDC" stroke-width="0.3" opacity="0.8"/>
  <line x1="23.9860" y1="38.1440" x2="33.1608" y2="0.3328" stroke="#D2E6FF" stroke-width="0.3" opacity="0.8"/>
  <line x1="42.0332" y1="43.0874" x2="16.6384" y2="2.6248" stroke="#FFDCDC" stroke-width="0.3" opacity="0.8"/>
  <line x1="17.8333" y1="43.1860" x2="55.7406" y2="58.6647" stroke="#D2E6FF" stroke-width="0.3" opacity="0.8"/>
  <line x1="17.0297" y1="42.8407" x2="2.1950" y2="36.1431" stroke="#FFDCDC" stroke-width="0.3" opacity="0.8"/>
  <line x1="41.2547" y1="31.4099" x2="41.2647" y2="38.9704" stroke="#D2E6FF" stroke-width="0.3" opacity="0.8"/>
  <line x1="41.4879" y1="21.8112" x2="44.3844" y2="0.4293" stroke="#FFDCDC" stroke-width="0.3" opacity="0.8"/>
  <line x1="43.2739" y1="17.6489" x2="54.7001" y2="1.5084" stroke="#FFDCDC" stroke-width="0.3" opacity="0.8"/>
  <line x1="17.4275" y1="43.0203" x2="53.3583" y2="59.2425" stroke="#D2E6FF" stroke-width="0.3" opacity="0.8"/>
  <line x1="23.9860" y1="38.1440" x2="20.0573" y2="58.0789" stroke="#FFDCDC" stroke-width="0.3" opacity="0.8"/>
  <line x1="41.2518" y1="29.2227" x2="41.2135" y2="0.3331" stroke="#FFDCDC" stroke-width="0.3" opacity="0.8"/>
  <line x1="41.2518" y1="29.2227" x2="41.0342" y2="60.1112" stroke="#D2E6FF" stroke-width="0.3" opacity="0.8"/>
  <line x1="43.0349" y1="17.9865" x2="53.8610" y2="1.3602" stroke="#FFDCDC" stroke-width="0.3" opacity="0.8"/>
  <line x1="43.4700" y1="44.7517" x2="58.6373" y2="57.6134" stroke="#D2E6FF" stroke-width="0.3" opacity="0.8"/>
  <line x1="22.8402" y1="41.2680" x2="14.6443" y2="56.8373" stroke="#FFDCDC" stroke-width="0.3" opacity="0.8"/>
  <line x1="24.4482" y1="29.7349" x2="23.7813" y2="1.0185" stroke="#D2E6FF" stroke-width="0.3" opacity="0.8"/>
  <line x1="48.8436" y1="13.3435" x2="23.9087" y2="23.4674" stroke="#D2E6FF" stroke-width="0.3" opacity="0.8"/>
  <line x1="41.6170" y1="42.2422" x2="23.9326" y2="0.9930" stroke="#FFDCDC" stroke-width="0.3" opacity="0.8"/>
  <line x1="46.6301" y1="14.5366" x2="24.3728" y2="28.1606" stroke="#D2E6FF" stroke-width="0.3" opacity="0.8"/>
  <line x1="22.4921" y1="41.8052" x2="12.6054" y2="56.2595" stroke="#FFDCDC" stroke-width="0.3" opacity="0.8"/>
  <line x1="44.2393" y1="45.2691" x2="61.7423" y2="55.6187" stroke="#D2E6FF" stroke-width="0.3" opacity="0.8"/>
  <line x1="41.4879" y1="21.8112" x2="34.4695" y2="59.8402" stroke="#D2E6FF" stroke-width="0.3" opacity="0.8"/>
  <line x1="43.0349" y1="17.9865" x2="15.3931" y2="57.0331" stroke="#D2E6FF" stroke-width="0.3" opacity="0.8"/>
  <line x1="20.3371" y1="43.4057" x2="3.0412" y2="49.0162" stroke="#FFDCDC" stroke-width="0.3" opacity="0.8"/>
  <line x1="22.6716" y1="41.5427" x2="50.4773" y2="0.8912" stroke="#D2E6FF" stroke-width="0.3" opacity="0.8"/>
  <line x1="41.7403" y1="42.5298" x2="21.4982" y2="1.4630" stroke="#FFDCDC" stroke-width="0.3" opacity="0.8"/>
  <line x1="41.5649" y1="21.3940" x2="32.6087" y2="59.7091" stroke="#D2E6FF" stroke-width="0.3" opacity="0.8"/>
  <line x1="14.7842" y1="41.5204" x2="4.7251" y2="34.8523" stroke="#FFDCDC" stroke-width="0.3" opacity="0.8"/>
  <line x1="19.0336" y1="43.5175" x2="0.5031" y2="42.7390" stroke="#FFDCDC" stroke-width="0.3" opacity="0.8"/>
  <line x1="47.3481" y1="14.0971" x2="63.5029" y2="4.2084" stroke="#FFDCDC" stroke-width="0.3" opacity="0.8"/>
  <line x1="44.2393" y1="45.2691" x2="24.3684" y2="35.0849" stroke="#FFDCDC" stroke-width="0.3" opacity="0.8"/>
  <line x1="41.3109" y1="24.8510" x2="39.9869" y2="60.1103" stroke="#D2E6FF" stroke-width="0.3" opacity="0.8"/>
  <line x1="24.3354" y1="27.5447" x2="22.7315" y2="1.1956" stroke="#D2E6FF" stroke-width="0.3" opacity="0.8"/>
  <line x1="44.6517" y1="16.0936" x2="58.2379" y2="2.2823" stroke="#FFDCDC" stroke-width="0.3" opacity="0.8"/>
  <line x1="20.9051" y1="43.1931" x2="5.1427" y2="51.6038" stroke="#FFDCDC" stroke-width="0.3" opacity="0.8"/>
  <line x1="24.4781" y1="31.9264" x2="24.9611" y2="0.8274" stroke="#D2E6FF" stroke-width="0.3" opacity="0.8"/>
  <line x1="24.2486" y1="26.4515" x2="22.2531" y2="1.2994" stroke="#D2E6FF" stroke-width="0.3" opacity="0.8"/>
  <line x1="24.4020" y1="28.6394" x2="23.2408" y2="1.1095" stroke="#D2E6FF" stroke-width="0.3" opacity="0.8"/>
  <line x1="48.8597" y1="44.9271" x2="53.6064" y2="42.2117" stroke="#D2E6FF" stroke-width="0.3" opacity="0.8"/>
  <line x1="41.9065" y1="20.1871" x2="48.4135" y2="0.6852" stroke="#FFDCDC" stroke-width="0.3" opacity="0.8"/>
  <line x1="20.3371" y1="43.4057" x2="41.2680" y2="38.6559" stroke="#D2E6FF" stroke-width="0.3" opacity="0.8"/>
  <line x1="44.7890" y1="45.5291" x2="23.9970" y2="38.0882" stroke="#FFDCDC" stroke-width="0.3" opacity="0.8"/>
  <line x1="45.0729" y1="45.6307" x2="23.5843" y2="39.5889" stroke="#FFDCDC" stroke-width="0.3" opacity="0.8"/>
  <line x1="21.1632" y1="16.8399" x2="2.1074" y2="11.8999" stroke="#D2E6FF" stroke-width="0.3" opacity="0.8"/>
  <line x1="14.7842" y1="41.5204" x2="40.4570" y2="60.1149" stroke="#D2E6FF" stroke-width="0.3" opacity="0.8"/>
  <line x1="21.4203" y1="42.8900" x2="7.4076" y2="53.5944" stroke="#FFDCDC" stroke-width="0.3" opacity="0.8"/>
  <line x1="24.4223" y1="34.1152" x2="26.2846" y2="0.6427" stroke="#D2E6FF" stroke-width="0.3" opacity="0.8"/>
  <line x1="43.7181" y1="44.9399" x2="24.4771" y2="31.9876" stroke="#FFDCDC" stroke-width="0.3" opacity="0.8"/>
  <line x1="42.0553" y1="19.8002" x2="49.3733" y2="0.7710" stroke="#FFDCDC" stroke-width="0.3" opacity="0.8"/>
  <line x1="42.2206" y1="19.4211" x2="50.3093" y2="0.8729" stroke="#FFDCDC" stroke-width="0.3" opacity="0.8"/>
  <line x1="43.0025" y1="44.3332" x2="56.4771" y2="58.4379" stroke="#D2E6FF" stroke-width="0.3" opacity="0.8"/>
  <line x1="19.0336" y1="43.5175" x2="63.3881" y2="49.0266" stroke="#D2E6FF" stroke-width="0.3" opacity="0.8"/>
  <line x1="42.5777" y1="43.8652" x2="23.6817" y2="21.9524" stroke="#FFDCDC" stroke-width="0.3" opacity="0.8"/>
  <line x1="23.8286" y1="38.7923" x2="35.1852" y2="0.3188" stroke="#D2E6FF" stroke-width="0.3" opacity="0.8"/>
  <line x1="43.2312" y1="44.5492" x2="24.3983" y2="28.5791" stroke="#FFDCDC" stroke-width="0.3" opacity="0.8"/>
  <line x1="19.3811" y1="43.5321" x2="0.8626" y2="44.3499" stroke="#FFDCDC" stroke-width="0.3" opacity="0.8"/>
  <line x1="42.3831" y1="43.6150" x2="23.0730" y2="18.7877" stroke="#FFDCDC" stroke-width="0.3" opacity="0.8"/>
  <line x1="41.5649" y1="21.3940" x2="45.4255" y2="0.4753" stroke="#FFDCDC" stroke-width="0.3" opacity="0.8"/>
  <line x1="23.4108" y1="40.0746" x2="40.5958" y2="0.3246" stroke="#D2E6FF" stroke-width="0.3" opacity="0.8"/>
  <line x1="41.6607" y1="20.9842" x2="46.4400" y2="0.5379" stroke="#FFDCDC" stroke-width="0.3" opacity="0.8"/>
  <line x1="41.5101" y1="41.9502" x2="26.3829" y2="0.6300" stroke="#FFDCDC" stroke-width="0.3" opacity="0.8"/>
  <line x1="41.4203" y1="41.6546" x2="28.8886" y2="0.4033" stroke="#FFDCDC" stroke-width="0.3" opacity="0.8"/>
  <line x1="43.4700" y1="44.7517" x2="24.4621" y2="30.3329" stroke="#FFDCDC" stroke-width="0.3" opacity="0.8"/>
  <line x1="24.4610" y1="33.0214" x2="25.6040" y2="0.7334" stroke="#D2E6FF" stroke-width="0.3" opacity="0.8"/>
  <line x1="24.2086" y1="36.8860" x2="29.9150" y2="0.3640" stroke="#D2E6FF" stroke-width="0.3" opacity="0.8"/>
  <line x1="23.1457" y1="40.6877" x2="44.3395" y2="0.4274" stroke="#D2E6FF" stroke-width="0.3" opacity="0.8"/>
  <line x1="46.5532" y1="45.8145" x2="4.3000" y2="50.6764" stroke="#FFDCDC" stroke-width="0.3" opacity="0.8"/>
  <line x1="44.6517" y1="16.0936" x2="24.4214" y2="34.1310" stroke="#D2E6FF" stroke-width="0.3" opacity="0.8"/>
  <line x1="41.2462" y1="40.4566" x2="39.3185" y2="0.3099" stroke="#FFDCDC" stroke-width="0.3" opacity="0.8"/>
  <line x1="45.9517" y1="45.8097" x2="0.6749" y2="43.6184" stroke="#FFDCDC" stroke-width="0.3" opacity="0.8"/>
  <line x1="16.6360" y1="18.2360" x2="45.3226" y2="0.4693" stroke="#FFDCDC" stroke-width="0.3" opacity="0.8"/>
  <line x1="18.6713" y1="43.4725" x2="0.3213" y2="41.1933" stroke="#FFDCDC" stroke-width="0.3" opacity="0.8"/>
  <line x1="47.3481" y1="14.0971" x2="24.2549" y2="26.5307" stroke="#D2E6FF" stroke-width="0.3" opacity="0.8"/>
  <line x1="49.4019" y1="44.5900" x2="27.0547" y2="59.1664" stroke="#FFDCDC" stroke-width="0.3" opacity="0.8"/>
  <line x1="43.7181" y1="44.9399" x2="59.7364" y2="57.0908" stroke="#D2E6FF" stroke-width="0.3" opacity="0.8"/>
  <line x1="44.5109" y1="45.4083" x2="24.2420" y2="36.6040" stroke="#FFDCDC" stroke-width="0.3" opacity="0.8"/>
  <line x1="47.1606" y1="45.7185" x2="11.7430" y2="55.9991" stroke="#FFDCDC" stroke-width="0.3" opacity="0.8"/>
  <line x1="45.2772" y1="15.5359" x2="24.4779" y2="31.8771" stroke="#D2E6FF" stroke-width="0.3" opacity="0.8"/>
  <line x1="45.6549" y1="45.7719" x2="21.6499" y2="42.7146" stroke="#FFDCDC" stroke-width="0.3" opacity="0.8"/>
  <line x1="45.3617" y1="45.7119" x2="22.9186" y2="41.1192" stroke="#FFDCDC" stroke-width="0.3" opacity="0.8"/>
  <line x1="43.9748" y1="45.1127" x2="24.4419" y2="33.5628" stroke="#FFDCDC" stroke-width="0.3" opacity="0.8"/>
  <line x1="42.2014" y1="43.3554" x2="14.2036" y2="3.3541" stroke="#FFDCDC" stroke-width="0.3" opacity="0.8"/>
  <line x1="21.6588" y1="42.7078" x2="41.2623" y2="27.7325" stroke="#D2E6FF" stroke-width="0.3" opacity="0.8"/>
  <line x1="21.8850" y1="42.5069" x2="41.3028" y2="25.2571" stroke="#D2E6FF" stroke-width="0.3" opacity="0.8"/>
  <line x1="41.7748" y1="20.5818" x2="47.4405" y2="0.6038" stroke="#FFDCDC" stroke-width="0.3" opacity="0.8"/>
  <line x1="24.2784" y1="36.2971" x2="22.5827" y2="58.5306" stroke="#FFDCDC" stroke-width="0.3" opacity="0.8"/>
  <line x1="42.8095" y1="18.3327" x2="17.3083" y2="57.4964" stroke="#D2E6FF" stroke-width="0.3" opacity="0.8"/>
  <line x1="19.7140" y1="43.5174" x2="1.4162" y2="45.9640" stroke="#FFDCDC" stroke-width="0.3" opacity="0.8"/>
  <line x1="22.9789" y1="18.5194" x2="41.5969" y2="60.1076" stroke="#FFDCDC" stroke-width="0.3" opacity="0.8"/>
  <line x1="42.7844" y1="44.1049" x2="55.4186" y2="58.7562" stroke="#D2E6FF" stroke-width="0.3" opacity="0.8"/>
  <line x1="41.3929" y1="22.6672" x2="42.2307" y2="0.3564" stroke="#FFDCDC" stroke-width="0.3" opacity="0.8"/>
  <line x1="41.8793" y1="42.8118" x2="19.0901" y2="2.0015" stroke="#FFDCDC" stroke-width="0.3" opacity="0.8"/>
  <line x1="43.5259" y1="17.3200" x2="55.5187" y2="1.6655" stroke="#FFDCDC" stroke-width="0.3" opacity="0.8"/>
  <line x1="41.8793" y1="42.8118" x2="50.2189" y2="59.7310" stroke="#D2E6FF" stroke-width="0.3" opacity="0.8"/>
  <line x1="49.4019" y1="44.5900" x2="52.4335" y2="42.7052" stroke="#D2E6FF" stroke-width="0.3" opacity="0.8"/>
  <line x1="42.2206" y1="19.4211" x2="23.0807" y2="58.6105" stroke="#D2E6FF" stroke-width="0.3" opacity="0.8"/>
  <line x1="45.2772" y1="15.5359" x2="59.6967" y2="2.6794" stroke="#FFDCDC" stroke-width="0.3" opacity="0.8"/>
  <line x1="41.2672" y1="27.0363" x2="41.4553" y2="0.3364" stroke="#FFDCDC" stroke-width="0.3" opacity="0.8"/>
  <line x1="24.1421" y1="25.3601" x2="21.8035" y2="1.3968" stroke="#D2E6FF" stroke-width="0.3" opacity="0.8"/>
  <line x1="21.4131" y1="16.9047" x2="3.2026" y2="9.9523" stroke="#D2E6FF" stroke-width="0.3" opacity="0.8"/>
  <line x1="20.6278" y1="43.3114" x2="4.0535" y2="50.3830" stroke="#FFDCDC" stroke-width="0.3" opacity="0.8"/>
  <line x1="22.8345" y1="18.1969" x2="46.4561" y2="60.0119" stroke="#FFDCDC" stroke-width="0.3" opacity="0.8"/>
  <line x1="24.3616" y1="35.2073" x2="23.0597" y2="58.6071" stroke="#FFDCDC" stroke-width="0.3" opacity="0.8"/>
  <line x1="23.4108" y1="40.0746" x2="17.1976" y2="57.4716" stroke="#FFDCDC" stroke-width="0.3" opacity="0.8"/>
  <line x1="41.6607" y1="20.9842" x2="30.7230" y2="59.5518" stroke="#D2E6FF" stroke-width="0.3" opacity="0.8"/>
  <line x1="43.0025" y1="44.3332" x2="24.2631" y2="26.6344" stroke="#FFDCDC" stroke-width="0.3" opacity="0.8"/>
  <line x1="41.7748" y1="20.5818" x2="28.8336" y2="59.3670" stroke="#D2E6FF" stroke-width="0.3" opacity="0.8"/>
  <line x1="42.5777" y1="43.8652" x2="54.3668" y2="59.0226" stroke="#D2E6FF" stroke-width="0.3" opacity="0.8"/>
  <line x1="41.4304" y1="22.2357" x2="43.3290" y2="0.3857" stroke="#FFDCDC" stroke-width="0.3" opacity="0.8"/>
  <line x1="41.3109" y1="24.8510" x2="41.8010" y2="0.3450" stroke="#FFDCDC" stroke-width="0.3" opacity="0.8"/>
  <line x1="23.8710" y1="23.1851" x2="20.9835" y2="1.5746" stroke="#D2E6FF" stroke-width="0.3" opacity="0.8"/>
  <line x1="20.0326" y1="43.4748" x2="2.1510" y2="47.5327" stroke="#FFDCDC" stroke-width="0.3" opacity="0.8"/>
  <line x1="23.3241" y1="19.9500" x2="19.9355" y2="1.8055" stroke="#D2E6FF" stroke-width="0.3" opacity="0.8"/>
  <line x1="41.3483" y1="41.3565" x2="31.4436" y2="0.3481" stroke="#FFDCDC" stroke-width="0.3" opacity="0.8"/>
  <line x1="24.1119" y1="37.5051" x2="31.4345" y2="0.3482" stroke="#D2E6FF" stroke-width="0.3" opacity="0.8"/>
  <line x1="24.2784" y1="36.2971" x2="28.5329" y2="0.4256" stroke="#D2E6FF" stroke-width="0.3" opacity="0.8"/>
  <line x1="41.2948" y1="41.0568" x2="34.0238" y2="0.3257" stroke="#FFDCDC" stroke-width="0.3" opacity="0.8"/>
  <line x1="23.7071" y1="22.1026" x2="20.6107" y2="1.6554" stroke="#D2E6FF" stroke-width="0.3" opacity="0.8"/>
  <line x1="41.2606" y1="40.7565" x2="36.6543" y2="0.3101" stroke="#FFDCDC" stroke-width="0.3" opacity="0.8"/>
  <line x1="41.4304" y1="22.2357" x2="36.3215" y2="59.9491" stroke="#D2E6FF" stroke-width="0.3" opacity="0.8"/>
  <line x1="23.6377" y1="39.4393" x2="37.6142" y2="0.3045" stroke="#D2E6FF" stroke-width="0.3" opacity="0.8"/>
  <line x1="24.3354" y1="27.5447" x2="26.8421" y2="59.1399" stroke="#FFDCDC" stroke-width="0.3" opacity="0.8"/>
  <line x1="22.3055" y1="17.4483" x2="10.8668" y2="4.6214" stroke="#D2E6FF" stroke-width="0.3" opacity="0.8"/>
  <line x1="44.7890" y1="45.5291" x2="62.9402" y2="53.4135" stroke="#D2E6FF" stroke-width="0.3" opacity="0.8"/>
  <line x1="49.9437" y1="44.2366" x2="51.2546" y2="43.3815" stroke="#D2E6FF" stroke-width="0.3" opacity="0.8"/>
  <line x1="48.0875" y1="13.6990" x2="24.0979" y2="24.9783" stroke="#D2E6FF" stroke-width="0.3" opacity="0.8"/>
  <line x1="45.0729" y1="45.6307" x2="63.2476" y2="52.1349" stroke="#D2E6FF" stroke-width="0.3" opacity="0.8"/>
  <line x1="41.3929" y1="22.6672" x2="38.1457" y2="60.0377" stroke="#D2E6FF" stroke-width="0.3" opacity="0.8"/>
  <line x1="42.8095" y1="18.3327" x2="53.0014" y2="1.2222" stroke="#FFDCDC" stroke-width="0.3" opacity="0.8"/>
  <line x1="24.4482" y1="29.7349" x2="25.6824" y2="58.9950" stroke="#FFDCDC" stroke-width="0.3" opacity="0.8"/>
  <line x1="41.2672" y1="27.0363" x2="40.6057" y2="60.1140" stroke="#D2E6FF" stroke-width="0.3" opacity="0.8"/>
  <line x1="45.9383" y1="15.0165" x2="61.0874" y2="3.1144" stroke="#FFDCDC" stroke-width="0.3" opacity="0.8"/>
  <line x1="45.9383" y1="15.0165" x2="24.4525" y2="29.9211" stroke="#D2E6FF" stroke-width="0.3" opacity="0.8"/>
  <line x1="13.3844" y1="40.4720" x2="7.4612" y2="35.8867" stroke="#FFDCDC" stroke-width="0.3" opacity="0.8"/>
  <line x1="42.0332" y1="43.0874" x2="51.2537" y2="59.5993" stroke="#D2E6FF" stroke-width="0.3" opacity="0.8"/>
  <line x1="44.0663" y1="16.6887" x2="24.2100" y2="36.8740" stroke="#D2E6FF" stroke-width="0.3" opacity="0.8"/>
  <line x1="42.7844" y1="44.1049" x2="24.0408" y2="24.4847" stroke="#FFDCDC" stroke-width="0.3" opacity="0.8"/>
  <line x1="21.1691" y1="43.0522" x2="41.2592" y2="32.3323" stroke="#D2E6FF" stroke-width="0.3" opacity="0.8"/>
  <line x1="43.5259" y1="17.3200" x2="10.7598" y2="55.5976" stroke="#D2E6FF" stroke-width="0.3" opacity="0.8"/>
  <line x1="47.4648" y1="45.6302" x2="16.8370" y2="57.3907" stroke="#FFDCDC" stroke-width="0.3" opacity="0.8"/>
  <line x1="44.5109" y1="45.4083" x2="62.4416" y2="54.5981" stroke="#D2E6FF" stroke-width="0.3" opacity="0.8"/>
  <line x1="24.0161" y1="24.2711" x2="21.3804" y2="1.4885" stroke="#D2E6FF" stroke-width="0.3" opacity="0.8"/>
  <line x1="17.8333" y1="43.1860" x2="1.4097" y2="37.1976" stroke="#FFDCDC" stroke-width="0.3" opacity="0.8"/>
  <line x1="47.7682" y1="45.5137" x2="22.0592" y2="58.4457" stroke="#FFDCDC" stroke-width="0.3" opacity="0.8"/>
  <line x1="43.2312" y1="44.5492" x2="57.5398" y2="58.0632" stroke="#D2E6FF" stroke-width="0.3" opacity="0.8"/>
  <line x1="44.0663" y1="16.6887" x2="56.7124" y2="1.9154" stroke="#FFDCDC" stroke-width="0.3" opacity="0.8"/>
  <line x1="0.3917" y1="41.9484" x2="0.3439" y2="41.5810" stroke="#EDB120" stroke-width="0.3" opacity="0.8"/>
  <line x1="7.1108" y1="35.6774" x2="6.2922" y2="35.1886" stroke="#7E2F8E" stroke-width="0.3" opacity="0.8"/>
  <line x1="67.6870" y1="10.8067" x2="67.7213" y2="10.4087" stroke="#7E2F8E" stroke-width="0.3" opacity="0.8"/>
  <line x1="0.3917" y1="41.9484" x2="0.4786" y2="42.5962" stroke="#7E2F8E" stroke-width="0.3" opacity="0.8"/>
  <line x1="67.6870" y1="10.8067" x2="67.6286" y2="11.4771" stroke="#EDB120" stroke-width="0.3" opacity="0.8"/>
  <line x1="56.9852" y1="42.2818" x2="60.7386" y2="43.6343" stroke="#EDB120" stroke-width="0.3" opacity="0.8"/>
  <line x1="7.1108" y1="35.6774" x2="9.5265" y2="37.3046" stroke="#EDB120" stroke-width="0.3" opacity="0.8"/>
  <line x1="16.1121" y1="18.5604" x2="43.6312" y2="0.3971" stroke="#7E2F8E" stroke-width="0.3" opacity="0.8"/>
  <line x1="56.9852" y1="42.2818" x2="55.1931" y2="41.9358" stroke="#7E2F8E" stroke-width="0.3" opacity="0.8"/>
  <line x1="12.7015" y1="39.9180" x2="36.6174" y2="59.9653" stroke="#EDB120" stroke-width="0.3" opacity="0.8"/>
  <line x1="41.2462" y1="40.4566" x2="40.8314" y2="60.1125" stroke="#EDB120" stroke-width="0.3" opacity="0.8"/>
  <line x1="49.6118" y1="13.0316" x2="38.6600" y2="0.3076" stroke="#EDB120" stroke-width="0.3" opacity="0.8"/>
  <line x1="49.9437" y1="44.2366" x2="27.2214" y2="59.1872" stroke="#7E2F8E" stroke-width="0.3" opacity="0.8"/>
  <line x1="41.2547" y1="31.4099" x2="41.1020" y2="0.3316" stroke="#7E2F8E" stroke-width="0.3" opacity="0.8"/>
  <path id="env" d="m 33.83127,0.32684998 3.8339,-0.0227 1.91978,0.0067 1.91985,0.0262 1.9187,0.0512 1.9161,0.0818 1.9122,0.1179 1.907,0.1597 1.9005,0.2069 1.8925,0.25970002 0.943,0.1514 0.9404,0.1667 0.9378,0.1827 0.9351,0.1994 0.932,0.2167 0.9289,0.2349 0.9257,0.2535 0.9221,0.2731 0.6644,0.2194 0.6744,0.2552 0.6764,0.2913 0.6702,0.3275 0.6558,0.3639 0.6332,0.4005 0.6026,0.4372 0.5636,0.4742 0.2647,0.251 0.2519,0.2603 0.2381,0.2696 0.2233,0.279 0.2075,0.2883 0.1905,0.2978 0.1727,0.3071 0.1538,0.3166 0.1338,0.326 0.1129,0.3356 0.091,0.345 0.0679,0.3546 0.044,0.3641 0.0189,0.3736 -0.0072,0.3833 -0.0342,0.3929 -0.0562,0.6521 -0.079,0.6717 -0.1047,0.6837 -0.1335,0.6884 -0.1652,0.6858 -0.1998,0.6756 -0.2375,0.6581 -0.2781,0.6332 -0.3216,0.6008 -0.178,0.286 -0.1901,0.27513 -0.2024,0.26332 -0.2152,0.25062 -0.2282,0.23697 -0.2418,0.22241 -0.2556,0.20692 -0.2698,0.1905 -0.2844,0.17315 -0.2993,0.15489 -0.3147,0.13569 -0.3304,0.11557 -0.3465,0.09452 -0.3629,0.07255 -0.4666,0.02453 -0.4649,0.0051 -0.4629,-0.0139 -0.4605,-0.03237 -0.458,-0.05034 -0.4552,-0.06781 -0.4521,-0.08479 -0.4488,-0.10128 -0.4453,-0.11725 -0.4413,-0.13274 -0.4373,-0.14773 -0.433,-0.16222 -0.8519,-0.36593 -0.8314,-0.41792 -0.809,-0.46595 -0.7844,-0.51001 -0.7579,-0.55 -0.7293,-0.5862 -0.6987,-0.6183 -0.666,-0.6463 -0.6313,-0.6706 -0.5945,-0.6907 -0.7682,0.3119 -0.7561,0.3555 -0.7394,0.3981 -0.718,0.4395 -0.6918,0.4799 -0.6611,0.5194 -0.6255,0.5577 -0.5854,0.5951 -0.5404,0.6313 -0.252,0.32894 -0.239,0.33761 -0.2254,0.34616 -0.2112,0.35457 -0.1965,0.36287 -0.1812,0.37101 -0.1653,0.37905 -0.1488,0.38693 -0.1317,0.39471 -0.1141,0.40233 -0.0958,0.40984 -0.077,0.41722 -0.0575,0.42446 -0.0375,0.43157 -0.082,2.18371 -0.0437,2.185295 -0.0154,2.186455 0.0029,2.18722 0.0215,4.37505 -0.0012,2.187 -0.0225,2.1861 -0.0063,0.2985 0.0144,0.2999 0.0342,0.3003 0.0535,0.2997 0.072,0.2981 0.0898,0.2956 0.1069,0.292 0.1233,0.2876 0.139,0.282 0.1539,0.2756 0.1682,0.268 0.1817,0.2596 0.1946,0.2502 0.2067,0.2397 0.2181,0.2283 0.2287,0.216 0.2388,0.2025 0.2481,0.1882 0.2567,0.1728 0.2645,0.1564 0.2716,0.1392 0.2781,0.1208 0.2839,0.1016 0.2888,0.0812 0.2932,0.06 0.2968,0.0378 0.2996,0.0145 0.3019,-0.0097 0.3033,-0.0349 0.3041,-0.0611 0.3042,-0.0883 0.3034,-0.1165 0.5475,-0.2754 0.544,-0.3112 0.5422,-0.3371 0.5418,-0.3534 1.0888,-0.7164 0.5502,-0.3435 0.556,-0.3208 0.5635,-0.2881 0.5724,-0.2458 0.583,-0.1938 0.296,-0.0743 0.2991,-0.0577 0.3026,-0.0397 0.3062,-0.0206 0.31,-3e-4 0.314,0.0213 0.3181,0.044 0.3226,0.068 0.3271,0.0933 0.3319,0.1196 0.5231,0.101 0.5286,0.1256 0.5291,0.151 0.5249,0.1776 0.5155,0.2051 0.5013,0.2336 0.4821,0.2632 0.4579,0.2937 0.4289,0.3251 0.3947,0.3577 0.3558,0.3912 0.3118,0.4257 0.1379,0.2261 0.125,0.2351 0.1116,0.2442 0.0974,0.2535 0.0828,0.2628 0.0675,0.2724 0.0515,0.2819 0.0349,0.2917 0.0713,0.6539 0.0546,0.6718 0.0335,0.6844 0.0082,0.6916 -0.0217,0.6933 -0.0558,0.6896 -0.0942,0.6805 -0.1371,0.666 -0.1843,0.6461 -0.1112,0.3138 -0.1247,0.3068 -0.1386,0.2992 -0.1531,0.2907 -0.1682,0.2817 -0.1838,0.272 -0.2,0.2616 -0.2166,0.2504 -0.2339,0.2387 -0.2517,0.2263 -0.2701,0.2132 -0.2889,0.1993 -0.3083,0.1849 -0.3283,0.1697 -0.5692,0.2878 -0.5751,0.2695 -0.5808,0.2516 -0.5861,0.2344 -0.5913,0.2178 -0.5961,0.2019 -0.6007,0.1865 -0.6049,0.1718 -1.2216,0.3018 -1.2354,0.2504 -1.247,0.2038 -1.2564,0.1622 -1.2635,0.1255 -1.2684,0.0937 -1.2712,0.067 -1.2717,0.0451 -2.5361,0.0444 -2.51168,0.0162 -1.80837,-0.0696 -1.81022,-0.0857 -1.81112,-0.1037 -1.81109,-0.1239 -1.810099,-0.1461 -1.808181,-0.1703 -1.80531,-0.1965 -1.8015,-0.2248 -1.79675,-0.2551 -1.79105,-0.2875 -1.78443,-0.3219 -1.7768,-0.3584 -1.7683,-0.3968 -1.7588,-0.4374 -1.7484,-0.4799 -1.7371,-0.5245 -0.5325,-0.2267 -0.5263,-0.2446 -0.5194,-0.2618 -0.5121,-0.2788 -0.5042,-0.2953 -0.4957,-0.3114 -0.4867,-0.3271 -0.477,-0.3423 -0.4668,-0.3572 -0.4561,-0.3715 -0.4447,-0.3855 -0.4328,-0.3991 -0.4204,-0.4123 -0.4073,-0.425 -0.3937,-0.4373 -0.3796,-0.4492 -0.3648,-0.4606 -0.3495,-0.4717 -0.3337,-0.4823 -0.3172,-0.4926 -0.3002,-0.5023 -0.2826,-0.5117 -0.2645,-0.5207 -0.2458,-0.5292 -0.2265,-0.5373 -0.2066,-0.545 -0.18630004,-0.5522 -0.1653,-0.5591 -0.1437,-0.5656 -0.1216,-0.5715 -0.0989,-0.5772 -0.0757,-0.5823 -0.0462,-0.3443 -0.0239,-0.354 -0.002,-0.3619 0.0192,-0.3679 0.0399,-0.3719 0.0599,-0.374 0.0793,-0.374 0.0982,-0.3723 0.1165,-0.3685 0.1342,-0.3629 0.15140004,-0.3552 0.1678,-0.3456 0.1838,-0.3341 0.1991,-0.32072 0.214,-0.30531 0.2281,-0.28799 0.2417,-0.26872 0.2547,-0.24753 0.2671,-0.2244 0.2789,-0.19932 0.2903,-0.1723 0.3008,-0.14336 0.311,-0.11246 0.3204,-0.07963 0.3294,-0.04487 0.3376,-0.0082 0.3454,0.03048 0.3526,0.07108 0.3591,0.11359 0.3651,0.15806 0.3704,0.20445 0.3753,0.2528 0.7491,0.44731 0.7266,0.48471 0.7083,0.51523 0.6938,0.53885 1.3609,1.1212 1.352,1.1333 0.6829,0.554 0.6929,0.5364 0.7069,0.512 0.725,0.4806 0.7471,0.4424 0.7734,0.3973 0.3978,0.1796 0.4058,0.1657 0.4144,0.1511 0.4236,0.1354 0.3623,0.045 0.3475,0.0146 0.3329,-0.0147 0.3186,-0.0426 0.3045,-0.0691 0.29071,-0.0943 0.27727,-0.1183 0.26406,-0.1409 0.25115,-0.1622 0.23851,-0.1822 0.22615,-0.2009 0.21408,-0.2183 0.20229,-0.2343 0.19077,-0.2491 0.17955,-0.2625 0.16859,-0.2747 0.30548,-0.5803 0.26506,-0.6131 0.22689,-0.6353 0.19098,-0.647 0.15731,-0.6483 0.12591,-0.6389 0.09674,-0.61915 0.06984,-0.58886 0.08312,-1.08982 0.06076,-1.09207 0.03872,-1.09379 0.01701,-1.095 -0.0044,-1.0957 L 24.4482,29.7349 24.40199,28.63938 24.33536,27.544724 24.24862,26.451455 24.14211,25.36009 24.01613,24.27115 23.87102,23.18514 23.70709,22.1026 23.52468,21.02403 23.32409,19.94996 23.10566,18.88091 22.97889,18.5194 22.83451,18.19689 22.6735,17.91187 22.49684,17.66285 22.30551,17.4483 l -0.20502,-0.18157 -0.21772,-0.15008 -0.22945,-0.1202 -0.24019,-0.0917 -0.24996,-0.0648 -0.25875,-0.0393 -0.26654,-0.0155 -0.27338,0.007 -0.2792,0.0279 -0.2841,0.0473 -0.2879,0.0651 -0.5837,0.178 -0.5873,0.23137 -0.5833,0.27276 -0.5714,0.30207 -0.5516,0.31931 -0.5239,0.32447 -0.9336,0.6162 -1.1105,0.67591 -1.1753,0.69362 -0.6076,0.3333 -0.6185,0.31356 -0.6277,0.28575 -0.6351,0.2499 -0.6409,0.20598 -0.6447,0.15401 -0.3233,0.05499 -0.3236,0.03898 -0.3238,0.02196 -0.3236,0.0039 L 7.5006,22.19342 7.1779,22.15828 6.856,22.10208 6.535,22.02383 6.2153,21.92251 5.897,21.79712 5.5803,21.64665 5.2655,21.4701 4.9295,21.2126 4.6073,20.93691 4.2994,20.64408 4.0064,20.33518 3.7285,20.01126 3.4664,19.67338 3.2203,19.32262 2.9909,18.96003 2.7785,18.58666 2.5835,18.20359 2.4065,17.81187 2.2479,17.41256 2.1082,17.00675 1.9877,16.59545 1.887,16.17975 l -0.0806,-0.4191 -0.0598,-0.4213 -0.0388,-0.4225 -0.0172,-0.4227 0.0047,-0.4218 0.0273,-0.4199 0.0501,-0.4168 0.0735,-0.4127 0.0973,-0.4076 0.1216,-0.4014 0.1463,-0.3941 0.1715,-0.3858 0.1971,-0.3763 0.2232,-0.366 0.2497,-0.3544 0.2766,-0.3418 0.3041,-0.3283 0.4743,-0.4712 0.4877,-0.4517 0.5005,-0.4329 0.5126,-0.4146 0.5245,-0.3969 0.5355,-0.3796 0.5462,-0.3631 0.5563,-0.3471 0.5658,-0.3317 0.5749,-0.3167 0.5833,-0.3025 0.5912,-0.2888 1.204,-0.5386 1.2292,-0.4907 1.2501,-0.4472 1.2667,-0.4084 1.2788,-0.3742 1.2868,-0.3445 1.2902,-0.3195 1.2896,-0.299 2.55937,-0.5548 1.80621,-0.30400002 0.90633,-0.1361 0.90837,-0.1211 0.91032,-0.1031 0.91216,-0.0818 0.91394,-0.0573 0.915252,-0.0293 z" style="font-variation-settings:normal;display:inline;opacity:1;vector-effect:none;fill:none;fill-opacity:1;fill-rule:evenodd;stroke:#888888;stroke-width:0.6;stroke-linecap:butt;stroke-linejoin:round;stroke-miterlimit:4;stroke-dasharray:none;stroke-dashoffset:0;stroke-opacity:1;-inkscape-stroke:none;stop-color:#000000;stop-opacity:1" transform=""/>
</svg>