<?xml version="1.0" encoding="UTF-8" standalone="no"?>
<!-- Created with Inkscape (http://www.inkscape.org/) -->

<svg
   width="68.012642mm"
   height="60.413486mm"
   viewBox="0 0 68.012642 60.413487"
   version="1.1"
   id="svg1"
   inkscape:version="1.4 (86a8ad7, 2024-10-11)"
   sodipodi:docname="env_1_smooth.svg"
   inkscape:export-filename="gap demo 7 - semsor.png"
   inkscape:export-xdpi="800"
   inkscape:export-ydpi="800"
   xmlns:inkscape="http://www.inkscape.org/namespaces/inkscape"
   xmlns:sodipodi="http://sodipodi.sourceforge.net/DTD/sodipodi-0.dtd"
   xmlns="http://www.w3.org/2000/svg"
   xmlns:svg="http://www.w3.org/2000/svg">
  <sodipodi:namedview
     id="namedview1"
     pagecolor="#ffffff"
     bordercolor="#000000"
     borderopacity="0.25"
     inkscape:showpageshadow="2"
     inkscape:pageopacity="0.0"
     inkscape:pagecheckerboard="0"
     inkscape:deskcolor="#d1d1d1"
     inkscape:document-units="mm"
     inkscape:zoom="12.422598"
     inkscape:cx="210.74497"
     inkscape:cy="27.651222"
     inkscape:window-width="1920"
     inkscape:window-height="1051"
     inkscape:window-x="-9"
     inkscape:window-y="-9"
     inkscape:window-maximized="1"
     inkscape:current-layer="svg1"
     showgrid="false" />
  <defs
     id="defs1" />
  <path
     id="curve"
     d="m 60.400903,2.8892624 c 3.501252,1.076067 7.690691,3.6616725 7.270165,7.9140176 -0.336713,3.40483 -1.307294,8.172741 -5.294835,8.627626 -4.967943,0.566726 -9.71124,-2.672124 -12.78032,-6.402764 -4.120865,1.545611 -8.181633,4.985803 -8.218945,9.635696 l -0.14035,17.490877 c -0.0255,3.17786 3.30191,6.790784 6.515705,5.355606 2.949579,-1.317188 6.010417,-3.795476 9.217005,-3.231904 2.655224,0.466667 5.525324,2.524952 6.26227,5.118194 0.92381,3.250797 0.265695,7.773933 -3.30288,9.585453 -6.08186,3.087342 -13.138783,3.250328 -19.787215,3.131426 -9.6422,-0.172443 -20.266462,0.623692 -28.627515,-4.182087 C 6.3468479,52.961426 1.1941137,48.166037 0.3757633,41.944951 c -0.477922,-3.633155 2.523245,-8.986383 6.71909,-6.270883 3.9084227,2.529484 6.9218997,6.701917 11.5604997,7.795137 3.891873,0.917232 5.329105,-4.131754 5.607175,-7.175448 0.530166,-5.803078 0.252567,-11.778597 -1.17278,-17.416226 -1.043846,-4.128688 -5.638241,-1.157391 -7.927185,0.295715 -2.819917,1.790187 -6.6581788,4.464511 -9.9129797,2.293473 C 1.4947014,18.962113 0.24578417,12.907698 3.6177083,9.4639104 8.6238965,4.3510284 15.946192,2.5597328 22.725258,1.1901484 25.116547,0.7070328 27.553842,0.37773936 29.997838,0.35742136 40.14644,0.27305162 50.583185,-0.12809275 60.400903,2.8892624 Z"
     style="font-variation-settings:normal;display:none;opacity:1;vector-effect:none;fill:none;fill-opacity:1;fill-rule:evenodd;stroke:#888888;stroke-width:0.6;stroke-linecap:butt;stroke-linejoin:round;stroke-miterlimit:4;stroke-dasharray:none;stroke-dashoffset:0;stroke-opacity:1;-inkscape-stroke:none;stop-color:#000000;stop-opacity:1"
     inkscape:label="curve"
     sodipodi:nodetypes="ssscsssaassasssssssssss" />
  <path
     style="fill:none;stroke:#1a5fb4;stroke-width:0.278335;stroke-linejoin:round;stroke-dasharray:none;stroke-opacity:1"
     d="m 8.4296047,19.262237 1.3532456,-1.607234 1.7833727,-1.680804 2.602772,-1.973891 3.483456,-2.048159 2.091135,-0.983636 2.334158,-0.920071 2.584995,-0.8293097 2.84333,-0.7111405 3.109487,-0.565633 3.383143,-0.392767 3.406827,-0.1690344 3.176508,0.066665 2.947585,0.2713272 2.720147,0.4449932 2.494099,0.5876071 2.269541,0.6992833 3.871403,1.6093898 2.99075,1.683655 2.121782,1.50979 1.683373,1.505571"
     id="path"
     sodipodi:nodetypes="czc"
     inkscape:label="path" />
  <path
     id="shadow"
     style="opacity:1;vector-effect:none;fill:#cbcbcb;stroke-width:0.7;stroke-linejoin:round;marker-start:url(#marker32);stop-color:#000000;stop-opacity:1"
     inkscape:label="shadow"
     d="m 27.78529,41.123309 h 10.308499 v 7.156313 H 27.78529 Z" />
  <path
     style="display:inline;opacity:0.6;fill:none;fill-opacity:1;stroke:#1a5fb4;stroke-width:0.3;stroke-dasharray:none;stroke-dashoffset:0;stroke-opacity:1"
     d="M 32.62492,6.6433103 15.43462,3.1270513"
     id="near"
     inkscape:label="near" />
  <path
     style="display:inline;opacity:0.6;fill:none;fill-opacity:1;stroke:#1a5fb4;stroke-width:0.3;stroke-dasharray:0.3, 0.6;stroke-dashoffset:0;stroke-opacity:1"
     d="M 62.39925,12.733618 32.62492,6.6433103"
     id="far"
     inkscape:label="far" />
  <g
     id="robot"
     style="display:inline;stroke-width:0.4;stroke-dasharray:none"
     transform="matrix(0.64,0,0,0.64,17.326305,4.1666459)"
     inkscape:label="robot">
    <circle
       style="display:inline;fill:#c3dbfa;fill-opacity:1;stroke:#1a5fb4;stroke-width:0.4;stroke-dasharray:none"
       id="path6-40"
       cx="21.164373"
       cy="15.437799"
       r="2.186522"
       inkscape:label="path6-40" />
    <circle
       style="display:inline;fill:#1a5fb4;fill-opacity:1;stroke:#1a5fb4;stroke-width:0.4;stroke-dasharray:none;stroke-opacity:1"
       id="path6-4-2"
       cx="21.164373"
       cy="15.437799"
       r="0.5" />
  </g>
  <path
     id="env"
     d="m 61.0594,3.11085 0.6716,0.2551 0.6723,0.2909 0.665,0.327 0.6502,0.3634 0.6275,0.3998 0.597,0.4366 0.5589,0.4736 0.2627,0.2507 0.2502,0.2601 0.2368,0.2695 0.2224,0.2788 0.207,0.2882 0.1907,0.2978 0.1733,0.3071 0.1551,0.3167 0.1359,0.3262 0.1156,0.3358 0.0944,0.3454 0.0723,0.355 0.0491,0.3647 0.025,0.3743 v 0.384 l -0.0261,0.3938 -0.0711,0.653 -0.0895,0.6766 -0.1113,0.692 -0.1367,0.6989 -0.1655,0.6977 -0.1978,0.688 -0.2336,0.67 -0.2728,0.6439 -0.3157,0.6092 -0.175,0.2891 -0.1869,0.27727 -0.1995,0.2645 -0.2123,0.25066 -0.2256,0.23578 -0.2393,0.21987 -0.2536,0.20291 -0.2681,0.18491 -0.2832,0.16588 -0.2988,0.1458 -0.3146,0.12468 -0.331,0.10254 -0.3479,0.07934 -0.365,0.05511 -0.4651,0.04208 -0.4634,0.02039 -0.4616,-6.9e-4 -0.4595,-0.02118 -0.4572,-0.04104 -0.4544,-0.06031 -0.4516,-0.07896 -0.4484,-0.09702 -0.445,-0.11446 -0.4412,-0.13129 -0.4373,-0.14753 -0.433,-0.16315 -0.4286,-0.17817 -0.4238,-0.19258 -0.8322,-0.42596 -0.8099,-0.47633 -0.7856,-0.52185 -0.759,-0.5625 -0.7305,-0.5982 -0.6997,-0.6292 -0.6668,-0.6554 -0.6318,-0.6765 -0.5947,-0.6929 -0.771,0.3118 -0.7638,0.3553 -0.7508,0.3976 -0.7319,0.439 -0.7073,0.4794 -0.6769,0.5189 -0.6406,0.5571 -0.5985,0.5946 -0.2817,0.311 -0.2691,0.31998 -0.2556,0.3288 -0.2414,0.33753 -0.2266,0.34611 -0.211,0.35459 -0.1947,0.36293 -0.1776,0.37114 -0.1599,0.37923 -0.1414,0.3872 -0.1221,0.39504 -0.1022,0.40276 -0.0816,0.41035 -0.0601,0.41781 -0.038,0.42515 -0.0152,0.43236 -0.1403,17.49092 0.0073,0.299 0.0263,0.3006 0.0447,0.3011 0.0625,0.3006 0.0796,0.2992 0.096,0.2967 0.1119,0.2933 0.127,0.2888 0.1417,0.2832 0.1556,0.2768 0.1688,0.2693 0.1816,0.2608 0.1935,0.2513 0.205,0.2409 0.2157,0.2293 0.2259,0.2167 0.2353,0.2033 0.2442,0.1888 0.2524,0.1732 0.26,0.1567 0.267,0.1392 0.2732,0.1206 0.279,0.1011 0.284,0.0806 0.2884,0.059 0.2922,0.0365 0.2953,0.0129 0.2978,-0.0117 0.2997,-0.0372 0.301,-0.0638 0.3015,-0.0913 0.3016,-0.1199 0.5543,-0.2596 0.557,-0.2806 1.1223,-0.5998 1.1334,-0.6101 0.5711,-0.2935 0.574,-0.2777 0.577,-0.2556 0.5801,-0.2274 0.5832,-0.1931 0.5864,-0.1525 0.5896,-0.1059 0.5929,-0.0531 0.2976,-0.0048 0.2985,0.0107 0.2994,0.027 0.3002,0.0441 0.4998,0.1059 0.5014,0.1416 0.4995,0.1759 0.4943,0.2085 0.4855,0.2396 0.4734,0.2692 0.4578,0.2972 0.4388,0.3237 0.4162,0.3486 0.3904,0.372 0.361,0.3938 0.3282,0.414 0.2919,0.4328 0.2523,0.45 0.2091,0.4656 0.1626,0.4798 0.1544,0.6234 0.1153,0.6475 0.0744,0.6656 0.0314,0.6779 -0.0134,0.6843 -0.0602,0.6851 -0.109,0.6798 -0.1597,0.6688 -0.2123,0.6519 -0.1265,0.3179 -0.1404,0.3114 -0.1545,0.3043 -0.1689,0.2964 -0.1836,0.2878 -0.1984,0.2785 -0.2135,0.2684 -0.2288,0.2577 -0.2445,0.2461 -0.2603,0.234 -0.2763,0.2209 -0.2927,0.2072 -0.3093,0.1929 -0.326,0.1776 -0.573,0.281 -0.5785,0.2643 -0.5836,0.2481 -0.5886,0.2324 -0.5933,0.2173 -0.5978,0.2025 -1.2078,0.3629 -1.2226,0.3098 -1.2353,0.2606 -1.246,0.2153 -1.2547,0.1739 -1.2613,0.1362 -1.2659,0.1026 -1.2685,0.0728 -1.2691,0.0468 -1.2675,0.0247 -1.2641,0.0064 -2.50965,-0.0262 -1.81863,-0.0226 -1.83689,-0.0095 -3.70956,-0.0183 -1.863159,-0.028 -1.862411,-0.0534 -1.8569,-0.0885 -1.84664,-0.1332 -0.91799,-0.0864 -0.91364,-0.1011 -0.90869,-0.1171 -0.90317,-0.1343 -0.89703,-0.1526 -0.89034,-0.1723 -0.883,-0.1931 -0.875,-0.215 -0.8666,-0.2383 -0.8575,-0.2626 -0.8477,-0.2883 -0.8375,-0.315 -0.8266,-0.3431 -0.8151,-0.3723 -0.8031,-0.4027 -0.7904,-0.4344 -0.9676,-0.5781 -0.9609,-0.6204 -0.948,-0.662 -0.9286,-0.703 -0.903,-0.7434 -0.871,-0.7833 -0.8327,-0.8226 -0.4,-0.4258 L 4.3093,50.15945 3.934,49.71445 3.5722,49.26005 3.2248,48.79635 2.8924,48.32325 2.576,47.84095 2.2762,47.34945 1.994,46.84885 1.73,46.33925 1.4851,45.82075 1.26,45.29345 l -0.2044,-0.5362 -0.18299996,-0.5449 -0.1607,-0.5535 -0.1377,-0.5622 -0.1139,-0.5706 -0.0893,-0.579 -0.0347,-0.3454 -0.0147,-0.3536 0.0048,-0.3601 0.024,-0.3649 0.0427,-0.3677 0.061,-0.3688 0.0788,-0.3682 0.0963,-0.3657 0.1133,-0.3615 0.13,-0.3554 0.14619996,-0.3475 0.1619,-0.338 0.1773,-0.3264 0.1923,-0.31331 0.2068,-0.29825 0.2209,-0.28144 0.2346,-0.26284 0.2479,-0.24245 0.2607,-0.22026 0.2731,-0.19629 0.2852,-0.17052 0.2968,-0.14296 0.308,-0.1136 0.3187,-0.08246 0.3291,-0.04952 0.339,-0.01479 0.3485,0.02174 0.3576,0.06005 0.3663,0.10016 0.3745,0.14206 0.3824,0.18575 0.3898,0.23124 0.723,0.49238 0.7056,0.52396 0.6921,0.54865 0.6822,0.5664 1.3494,1.1584 1.3541,1.1464 0.6881,0.5514 0.7003,0.5276 0.7162,0.497 0.7359,0.4595 0.7592,0.4149 0.3895,0.1886 0.3967,0.1749 0.4044,0.1603 0.4125,0.1448 0.4211,0.1286 0.4302,0.1113 0.3577,0.0688 0.3436,0.0353 0.3296,0.0032 0.316,-0.0274 0.3026,-0.0565 0.2893,-0.0841 0.27643,-0.1104 0.26367,-0.135 0.25119,-0.1584 0.23894,-0.1802 0.22693,-0.2005 0.21516,-0.2195 0.20362,-0.2369 0.19233,-0.2529 0.18126,-0.2674 0.17043,-0.2804 0.30935,-0.5943 0.2689,-0.629 0.23034,-0.6521 0.19369,-0.6635 0.15893,-0.6632 0.12606,-0.6512 0.09511,-0.62756 0.06603,-0.59224 0.08986,-1.08998 0.07043,-1.09326 0.0505,-1.09582 0.03007,-1.09761 0.0092,-1.09866 -0.01227,-1.09897 -0.0342,-1.09853 -0.05661,-1.097329 -0.07953,-1.095395 -0.10294,-1.092706 -0.12685,-1.08927 -0.15127,-1.0851 -0.17617,-1.08016 -0.20158,-1.07449 -0.22748,-1.06806 -0.25389,-1.06089 -0.10808,-0.36653 -0.12782,-0.3265 -0.14647,-0.28806 -0.16406,-0.25119 -0.18058,-0.2159 -0.19602,-0.18219 -0.21039,-0.1501 -0.22369,-0.1195 -0.23591,-0.0905 -0.24707,-0.0631 -0.25715,-0.0373 -0.26616,-0.0131 -0.27409,0.0096 -0.281,0.0307 -0.2867,0.0502 -0.2915,0.0682 -0.5928,0.1837 -0.5988,0.23653 -0.5963,0.27669 -0.5851,0.30423 -0.5654,0.31915 -0.5371,0.32144 -0.955,0.59925 -1.1021,0.70157 -1.1787,0.71732 -0.6123,0.34358 -0.6244,0.32234 -0.6342,0.2927 -0.6417,0.25468 -0.6467,0.20826 -0.6495,0.15344 -0.3251,0.05354 -0.3248,0.0367 L 8.0939,22.27826 7.7703,22.27811 7.4478,22.25795 7.1266,22.21675 6.8071,22.15345 6.4896,22.06701 6.1743,21.95638 5.8616,21.8205 5.5516,21.65832 5.2448,21.46881 4.9002,21.22379 4.5707,20.9591 4.2566,20.67587 3.9583,20.37522 3.6763,20.05828 3.411,19.72618 3.1626,19.38005 2.9316,19.02102 2.7184,18.65021 2.5233,18.26876 2.3469,17.87778 2.1893,17.47842 2.0511,17.07175 l -0.1185,-0.4127 -0.0984,-0.4178 -0.0779,-0.4217 -0.057,-0.4244 -0.0357,-0.426 -0.0141,-0.4265 0.0079,-0.4259 0.0304,-0.4241 0.0532,-0.4213 0.0764,-0.4172 0.1,-0.4121 0.1239,-0.4058 0.1484,-0.3984 0.173,-0.3899 0.1983,-0.3802 0.2237,-0.3694 0.2497,-0.3576 0.2759,-0.3444 0.3027,-0.3304 0.476,-0.4696 0.4891,-0.4508 0.5016,-0.4324 0.5136,-0.4144 0.525,-0.3972 0.5361,-0.3803 0.5464,-0.3641 0.5564,-0.3483 0.5657,-0.3331 0.5746,-0.3185 0.583,-0.3042 0.5907,-0.2907 1.2029,-0.5425 1.2278,-0.4945 1.2486,-0.4505 1.2652,-0.411 1.2775,-0.3756 1.2858,-0.3444 1.2898,-0.3176 1.2897,-0.295 2.562,-0.539 0.89882,-0.1737 0.90266,-0.1574 0.90606,-0.1393 0.90899,-0.1195 0.91146,-0.0978 0.91347,-0.0743 0.91502,-0.0489 0.916104,-0.0218 3.817456,-0.0392 3.83385,-0.0251 1.91974,0.0064 1.91987,0.0263 1.9186,0.0517 1.9161,0.0826 1.9122,0.119 1.907,0.1608 1.9005,0.2081 1.8926,0.2608 0.9429,0.1519 0.9405,0.1672 0.9378,0.183 0.9351,0.1997 0.932,0.217 0.929,0.235 0.9257,0.2536 0.9221,0.273 z"
     style="font-variation-settings:normal;display:inline;opacity:1;vector-effect:none;fill:none;fill-opacity:1;fill-rule:evenodd;stroke:#888888;stroke-width:0.6;stroke-linecap:butt;stroke-linejoin:round;stroke-miterlimit:4;stroke-dasharray:none;stroke-dashoffset:0;stroke-opacity:1;-inkscape-stroke:none;stop-color:#000000;stop-opacity:1"
     inkscape:label="env"
     sodipodi:nodetypes="sscsssaassassssssssssscccccccccccccccccccccccccccccccccccccccccccccccccccccccccccccccccccccccccccccccccccccccccccccccccccccccccccccccccccccccccccccccccccccccccccccccccccccccccccccccccccccccccccccccccccccccccccccccccccccccccccccccccccccccccccccccccccccccccccccccccccccccccccccccccccccccccccccccccccccccccccccccccccccccccccccccccccccccccccccccccccccccccccccccccccccccccccccccccccccccccccccccccccccccccccccccccccccccccccccccccccccccccccccccccccccccccccccccccccccs" />
</svg>
