<?xml version="1.0" encoding="UTF-8" standalone="no"?>
<!-- Created with Inkscape (http://www.inkscape.org/) -->

<svg
   width="68.012642mm"
   height="60.413486mm"
   viewBox="0 0 68.012642 60.413487"
   version="1.1"
   id="svg1"
   inkscape:version="1.4 (86a8ad7, 2024-10-11)"
   sodipodi:docname="env_1.svg"
   inkscape:export-filename="gap demo 7 - semsor.png"
   inkscape:export-xdpi="800"
   inkscape:export-ydpi="800"
   xmlns:inkscape="http://www.inkscape.org/namespaces/inkscape"
   xmlns:sodipodi="http://sodipodi.sourceforge.net/DTD/sodipodi-0.dtd"
   xmlns="http://www.w3.org/2000/svg"
   xmlns:svg="http://www.w3.org/2000/svg">
  <sodipodi:namedview
     id="namedview1"
     pagecolor="#ffffff"
     bordercolor="#000000"
     borderopacity="0.25"
     inkscape:showpageshadow="2"
     inkscape:pageopacity="0.0"
     inkscape:pagecheckerboard="0"
     inkscape:deskcolor="#d1d1d1"
     inkscape:document-units="mm"
     inkscape:zoom="6.2112988"
     inkscape:cx="121.15019"
     inkscape:cy="59.488363"
     inkscape:window-width="1920"
     inkscape:window-height="1051"
     inkscape:window-x="-9"
     inkscape:window-y="-9"
     inkscape:window-maximized="1"
     inkscape:current-layer="svg1"
     showgrid="false" />
  <defs
     id="defs1" />
  <path
     id="env"
     d="m 33.83127,0.32684998 3.8339,-0.0227 1.91978,0.0067 1.91985,0.0262 1.9187,0.0512 1.9161,0.0818 1.9122,0.1179 1.907,0.1597 1.9005,0.2069 1.8925,0.25970002 0.943,0.1514 0.9404,0.1667 0.9378,0.1827 0.9351,0.1994 0.932,0.2167 0.9289,0.2349 0.9257,0.2535 0.9221,0.2731 0.6644,0.2194 0.6744,0.2552 0.6764,0.2913 0.6702,0.3275 0.6558,0.3639 0.6332,0.4005 0.6026,0.4372 0.5636,0.4742 0.2647,0.251 0.2519,0.2603 0.2381,0.2696 0.2233,0.279 0.2075,0.2883 0.1905,0.2978 0.1727,0.3071 0.1538,0.3166 0.1338,0.326 0.1129,0.3356 0.091,0.345 0.0679,0.3546 0.044,0.3641 0.0189,0.3736 -0.0072,0.3833 -0.0342,0.3929 -0.0562,0.6521 -0.079,0.6717 -0.1047,0.6837 -0.1335,0.6884 -0.1652,0.6858 -0.1998,0.6756 -0.2375,0.6581 -0.2781,0.6332 -0.3216,0.6008 -0.178,0.286 -0.1901,0.27513 -0.2024,0.26332 -0.2152,0.25062 -0.2282,0.23697 -0.2418,0.22241 -0.2556,0.20692 -0.2698,0.1905 -0.2844,0.17315 -0.2993,0.15489 -0.3147,0.13569 -0.3304,0.11557 -0.3465,0.09452 -0.3629,0.07255 -0.4666,0.02453 -0.4649,0.0051 -0.4629,-0.0139 -0.4605,-0.03237 -0.458,-0.05034 -0.4552,-0.06781 -0.4521,-0.08479 -0.4488,-0.10128 -0.4453,-0.11725 -0.4413,-0.13274 -0.4373,-0.14773 -0.433,-0.16222 -0.8519,-0.36593 -0.8314,-0.41792 -0.809,-0.46595 -0.7844,-0.51001 -0.7579,-0.55 -0.7293,-0.5862 -0.6987,-0.6183 -0.666,-0.6463 -0.6313,-0.6706 -0.5945,-0.6907 -0.7682,0.3119 -0.7561,0.3555 -0.7394,0.3981 -0.718,0.4395 -0.6918,0.4799 -0.6611,0.5194 -0.6255,0.5577 -0.5854,0.5951 -0.5404,0.6313 -0.252,0.32894 -0.239,0.33761 -0.2254,0.34616 -0.2112,0.35457 -0.1965,0.36287 -0.1812,0.37101 -0.1653,0.37905 -0.1488,0.38693 -0.1317,0.39471 -0.1141,0.40233 -0.0958,0.40984 -0.077,0.41722 -0.0575,0.42446 -0.0375,0.43157 -0.082,2.18371 -0.0437,2.185295 -0.0154,2.186455 0.0029,2.18722 0.0215,4.37505 -0.0012,2.187 -0.0225,2.1861 -0.0063,0.2985 0.0144,0.2999 0.0342,0.3003 0.0535,0.2997 0.072,0.2981 0.0898,0.2956 0.1069,0.292 0.1233,0.2876 0.139,0.282 0.1539,0.2756 0.1682,0.268 0.1817,0.2596 0.1946,0.2502 0.2067,0.2397 0.2181,0.2283 0.2287,0.216 0.2388,0.2025 0.2481,0.1882 0.2567,0.1728 0.2645,0.1564 0.2716,0.1392 0.2781,0.1208 0.2839,0.1016 0.2888,0.0812 0.2932,0.06 0.2968,0.0378 0.2996,0.0145 0.3019,-0.0097 0.3033,-0.0349 0.3041,-0.0611 0.3042,-0.0883 0.3034,-0.1165 0.5475,-0.2754 0.544,-0.3112 0.5422,-0.3371 0.5418,-0.3534 1.0888,-0.7164 0.5502,-0.3435 0.556,-0.3208 0.5635,-0.2881 0.5724,-0.2458 0.583,-0.1938 0.296,-0.0743 0.2991,-0.0577 0.3026,-0.0397 0.3062,-0.0206 0.31,-3e-4 0.314,0.0213 0.3181,0.044 0.3226,0.068 0.3271,0.0933 0.3319,0.1196 0.5231,0.101 0.5286,0.1256 0.5291,0.151 0.5249,0.1776 0.5155,0.2051 0.5013,0.2336 0.4821,0.2632 0.4579,0.2937 0.4289,0.3251 0.3947,0.3577 0.3558,0.3912 0.3118,0.4257 0.1379,0.2261 0.125,0.2351 0.1116,0.2442 0.0974,0.2535 0.0828,0.2628 0.0675,0.2724 0.0515,0.2819 0.0349,0.2917 0.0713,0.6539 0.0546,0.6718 0.0335,0.6844 0.0082,0.6916 -0.0217,0.6933 -0.0558,0.6896 -0.0942,0.6805 -0.1371,0.666 -0.1843,0.6461 -0.1112,0.3138 -0.1247,0.3068 -0.1386,0.2992 -0.1531,0.2907 -0.1682,0.2817 -0.1838,0.272 -0.2,0.2616 -0.2166,0.2504 -0.2339,0.2387 -0.2517,0.2263 -0.2701,0.2132 -0.2889,0.1993 -0.3083,0.1849 -0.3283,0.1697 -0.5692,0.2878 -0.5751,0.2695 -0.5808,0.2516 -0.5861,0.2344 -0.5913,0.2178 -0.5961,0.2019 -0.6007,0.1865 -0.6049,0.1718 -1.2216,0.3018 -1.2354,0.2504 -1.247,0.2038 -1.2564,0.1622 -1.2635,0.1255 -1.2684,0.0937 -1.2712,0.067 -1.2717,0.0451 -2.5361,0.0444 -2.51168,0.0162 -1.80837,-0.0696 -1.81022,-0.0857 -1.81112,-0.1037 -1.81109,-0.1239 -1.810099,-0.1461 -1.808181,-0.1703 -1.80531,-0.1965 -1.8015,-0.2248 -1.79675,-0.2551 -1.79105,-0.2875 -1.78443,-0.3219 -1.7768,-0.3584 -1.7683,-0.3968 -1.7588,-0.4374 -1.7484,-0.4799 -1.7371,-0.5245 -0.5325,-0.2267 -0.5263,-0.2446 -0.5194,-0.2618 -0.5121,-0.2788 -0.5042,-0.2953 -0.4957,-0.3114 -0.4867,-0.3271 -0.477,-0.3423 -0.4668,-0.3572 -0.4561,-0.3715 -0.4447,-0.3855 -0.4328,-0.3991 -0.4204,-0.4123 -0.4073,-0.425 -0.3937,-0.4373 -0.3796,-0.4492 -0.3648,-0.4606 -0.3495,-0.4717 -0.3337,-0.4823 -0.3172,-0.4926 -0.3002,-0.5023 -0.2826,-0.5117 -0.2645,-0.5207 -0.2458,-0.5292 -0.2265,-0.5373 -0.2066,-0.545 -0.18630004,-0.5522 -0.1653,-0.5591 -0.1437,-0.5656 -0.1216,-0.5715 -0.0989,-0.5772 -0.0757,-0.5823 -0.0462,-0.3443 -0.0239,-0.354 -0.002,-0.3619 0.0192,-0.3679 0.0399,-0.3719 0.0599,-0.374 0.0793,-0.374 0.0982,-0.3723 0.1165,-0.3685 0.1342,-0.3629 0.15140004,-0.3552 0.1678,-0.3456 0.1838,-0.3341 0.1991,-0.32072 0.214,-0.30531 0.2281,-0.28799 0.2417,-0.26872 0.2547,-0.24753 0.2671,-0.2244 0.2789,-0.19932 0.2903,-0.1723 0.3008,-0.14336 0.311,-0.11246 0.3204,-0.07963 0.3294,-0.04487 0.3376,-0.0082 0.3454,0.03048 0.3526,0.07108 0.3591,0.11359 0.3651,0.15806 0.3704,0.20445 0.3753,0.2528 0.7491,0.44731 0.7266,0.48471 0.7083,0.51523 0.6938,0.53885 1.3609,1.1212 1.352,1.1333 0.6829,0.554 0.6929,0.5364 0.7069,0.512 0.725,0.4806 0.7471,0.4424 0.7734,0.3973 0.3978,0.1796 0.4058,0.1657 0.4144,0.1511 0.4236,0.1354 0.3623,0.045 0.3475,0.0146 0.3329,-0.0147 0.3186,-0.0426 0.3045,-0.0691 0.29071,-0.0943 0.27727,-0.1183 0.26406,-0.1409 0.25115,-0.1622 0.23851,-0.1822 0.22615,-0.2009 0.21408,-0.2183 0.20229,-0.2343 0.19077,-0.2491 0.17955,-0.2625 0.16859,-0.2747 0.30548,-0.5803 0.26506,-0.6131 0.22689,-0.6353 0.19098,-0.647 0.15731,-0.6483 0.12591,-0.6389 0.09674,-0.61915 0.06984,-0.58886 0.08312,-1.08982 0.06076,-1.09207 0.03872,-1.09379 0.01701,-1.095 -0.0044,-1.0957 L 24.4482,29.7349 24.40199,28.63938 24.33536,27.544724 24.24862,26.451455 24.14211,25.36009 24.01613,24.27115 23.87102,23.18514 23.70709,22.1026 23.52468,21.02403 23.32409,19.94996 23.10566,18.88091 22.97889,18.5194 22.83451,18.19689 22.6735,17.91187 22.49684,17.66285 22.30551,17.4483 l -0.20502,-0.18157 -0.21772,-0.15008 -0.22945,-0.1202 -0.24019,-0.0917 -0.24996,-0.0648 -0.25875,-0.0393 -0.26654,-0.0155 -0.27338,0.007 -0.2792,0.0279 -0.2841,0.0473 -0.2879,0.0651 -0.5837,0.178 -0.5873,0.23137 -0.5833,0.27276 -0.5714,0.30207 -0.5516,0.31931 -0.5239,0.32447 -0.9336,0.6162 -1.1105,0.67591 -1.1753,0.69362 -0.6076,0.3333 -0.6185,0.31356 -0.6277,0.28575 -0.6351,0.2499 -0.6409,0.20598 -0.6447,0.15401 -0.3233,0.05499 -0.3236,0.03898 -0.3238,0.02196 -0.3236,0.0039 L 7.5006,22.19342 7.1779,22.15828 6.856,22.10208 6.535,22.02383 6.2153,21.92251 5.897,21.79712 5.5803,21.64665 5.2655,21.4701 4.9295,21.2126 4.6073,20.93691 4.2994,20.64408 4.0064,20.33518 3.7285,20.01126 3.4664,19.67338 3.2203,19.32262 2.9909,18.96003 2.7785,18.58666 2.5835,18.20359 2.4065,17.81187 2.2479,17.41256 2.1082,17.00675 1.9877,16.59545 1.887,16.17975 l -0.0806,-0.4191 -0.0598,-0.4213 -0.0388,-0.4225 -0.0172,-0.4227 0.0047,-0.4218 0.0273,-0.4199 0.0501,-0.4168 0.0735,-0.4127 0.0973,-0.4076 0.1216,-0.4014 0.1463,-0.3941 0.1715,-0.3858 0.1971,-0.3763 0.2232,-0.366 0.2497,-0.3544 0.2766,-0.3418 0.3041,-0.3283 0.4743,-0.4712 0.4877,-0.4517 0.5005,-0.4329 0.5126,-0.4146 0.5245,-0.3969 0.5355,-0.3796 0.5462,-0.3631 0.5563,-0.3471 0.5658,-0.3317 0.5749,-0.3167 0.5833,-0.3025 0.5912,-0.2888 1.204,-0.5386 1.2292,-0.4907 1.2501,-0.4472 1.2667,-0.4084 1.2788,-0.3742 1.2868,-0.3445 1.2902,-0.3195 1.2896,-0.299 2.55937,-0.5548 1.80621,-0.30400002 0.90633,-0.1361 0.90837,-0.1211 0.91032,-0.1031 0.91216,-0.0818 0.91394,-0.0573 0.915252,-0.0293 z"
     style="font-variation-settings:normal;display:inline;opacity:1;vector-effect:none;fill:none;fill-opacity:1;fill-rule:evenodd;stroke:#888888;stroke-width:0.6;stroke-linecap:butt;stroke-linejoin:round;stroke-miterlimit:4;stroke-dasharray:none;stroke-dashoffset:0;stroke-opacity:1;-inkscape-stroke:none;stop-color:#000000;stop-opacity:1"
     inkscape:label="env"
     sodipodi:nodetypes="cccccccccccccccccccccccccccccccccccccccccccccccccccccccccccccccccccccccccccccccccccccccccccccccccccccccccccccccccccccccccccccccccccccccccccccccccccccccccccccccccccccccccccccccccccccccccccccccccccccccccccccccccccccccccccccccccccccccccccccccccccccccccccccccccccccccccccccccccccccccccccccccccccccccccccccccccccccccccccccccccccccccccccccccccccccccccccccccccccccccccccccccccccccccccccccccccccccccccccccccccccccccccccccccccccccccccccccccccccccccccccccccccccccccccccccccccccccc" />
  <path
     style="fill:none;stroke:#1a5fb4;stroke-width:0.271679;stroke-linejoin:round;stroke-dasharray:none;stroke-opacity:1"
     d="m 10.137729,20.800112 1.312302,-1.586775 1.722948,-1.653687 2.507494,-1.934143 3.347159,-1.994751 2.005678,-0.951488 2.236137,-0.884122 2.473637,-0.789431 2.717867,-0.667205 2.969145,-0.517509 3.227155,-0.3403285 3.246396,-0.1161481 3.023607,0.1160554 2.802604,0.317233 2.583473,0.4874262 2.366128,0.626578 2.150656,0.734804 3.662447,1.670129 2.822813,1.730735 1.997974,1.543302 1.580594,1.532269"
     id="path"
     sodipodi:nodetypes="czc"
     inkscape:label="path" />
  <path
     id="shadow"
     style="opacity:1;vector-effect:none;fill:#cbcbcb;stroke-width:0.7;stroke-linejoin:round;marker-start:url(#marker32);stop-color:#000000;stop-opacity:1"
     inkscape:label="shadow"
     d="m 27.78529,41.123309 h 10.308499 v 7.156313 H 27.78529 Z" />
  <path
     style="display:inline;opacity:0.6;fill:none;fill-opacity:1;stroke:#1a5fb4;stroke-width:0.3;stroke-dasharray:none;stroke-dashoffset:0;stroke-opacity:1"
     d="M 32.62492,6.6433103 15.43462,3.1270513"
     id="near"
     inkscape:label="near" />
  <path
     style="display:inline;opacity:0.6;fill:none;fill-opacity:1;stroke:#1a5fb4;stroke-width:0.3;stroke-dasharray:0.3, 0.6;stroke-dashoffset:0;stroke-opacity:1"
     d="M 62.39925,12.733618 32.62492,6.6433103"
     id="far"
     inkscape:label="far" />
  <g
     id="robot"
     style="display:inline;stroke-width:0.4;stroke-dasharray:none"
     transform="translate(20.729051,9.3269923)"
     inkscape:label="robot">
    <circle
       style="display:inline;fill:#c3dbfa;fill-opacity:1;stroke:#1a5fb4;stroke-width:0.4;stroke-dasharray:none"
       id="path6-40"
       cx="21.164373"
       cy="15.437799"
       r="2.186522"
       inkscape:label="path6-40" />
    <circle
       style="display:inline;fill:#1a5fb4;fill-opacity:1;stroke:#1a5fb4;stroke-width:0.4;stroke-dasharray:none;stroke-opacity:1"
       id="path6-4-2"
       cx="21.164373"
       cy="15.437799"
       r="0.5" />
  </g>
</svg>
