<?xml version="1.0" encoding="UTF-8" standalone="no"?>
<!-- Created with Inkscape (http://www.inkscape.org/) -->

<svg
   width="110mm"
   height="80mm"
   viewBox="0 0 110 80"
   version="1.1"
   id="svg1"
   inkscape:version="1.4 (86a8ad7, 2024-10-11)"
   sodipodi:docname="env_2.svg"
   xmlns:inkscape="http://www.inkscape.org/namespaces/inkscape"
   xmlns:sodipodi="http://sodipodi.sourceforge.net/DTD/sodipodi-0.dtd"
   xmlns="http://www.w3.org/2000/svg"
   xmlns:svg="http://www.w3.org/2000/svg">
  <sodipodi:namedview
     id="namedview1"
     pagecolor="#ffffff"
     bordercolor="#000000"
     borderopacity="0.25"
     inkscape:showpageshadow="2"
     inkscape:pageopacity="0.0"
     inkscape:pagecheckerboard="0"
     inkscape:deskcolor="#d1d1d1"
     inkscape:document-units="mm"
     inkscape:zoom="2.1543544"
     inkscape:cx="219.78742"
     inkscape:cy="220.2516"
     inkscape:window-width="1920"
     inkscape:window-height="1051"
     inkscape:window-x="-9"
     inkscape:window-y="-9"
     inkscape:window-maximized="1"
     inkscape:current-layer="svg1" />
  <defs
     id="defs1" />
  <path
     style="fill:none;stroke:#888888;stroke-width:0.600001;stroke-linejoin:round"
     d="m 17.893,74.652 -4.19e-4,-49.999694 c 0,13.807119 11.192881,25 25,25 13.807123,0 25.000003,-11.192881 25.000003,-25 13.80712,0 25,11.192881 25,25 0,13.807119 -11.19288,25 -25,25 z"
     id="curve"
     sodipodi:nodetypes="ccscscc" />
  <path
     style="fill:none;stroke:#888888;stroke-width:0.600001;stroke-linejoin:round"
     d="m 17.892583,74.652306 v -50 l 0.0082,0.6453 0.0243,0.6412 0.0404,0.637 0.0562,0.6326 0.0718,0.628 0.0872,0.6232 0.1024,0.6181 0.1174,0.613 0.1323,0.6075 0.1469,0.602 0.1613,0.5962 0.1756,0.5901 0.1896,0.584 0.2034,0.5776 0.2171,0.5711 0.2305,0.5642 0.5007,1.1074 0.5521,1.078 0.6019,1.04691 0.6503,1.01433 0.697,0.98016 0.7422,0.94442 0.7857,0.90712 0.8278,0.86823 0.8683,0.82778 0.9071,0.78577 0.944399,0.74217 0.9802,0.697 1.0143,0.65028 1.0469,0.601965 1.078,0.552093 1.1074,0.500648 0.5642,0.230541 0.5711,0.217093 0.5776,0.20344 0.584,0.1896 0.5901,0.17556 0.5962,0.16132 0.602,0.1469 0.6075,0.13226 0.613,0.11744 0.6181,0.10241 0.6232,0.0872 0.628,0.07179 0.6326,0.05617 0.637,0.04037 0.64124,0.02436 0.64526,0.0082 0.64526,-0.0082 0.64124,-0.02436 0.63701,-0.04037 0.63259,-0.05617 0.62798,-0.07179 0.62317,-0.0872 0.61816,-0.10241 0.61296,-0.11744 0.60756,-0.13226 0.60196,-0.1469 0.59617,-0.16132 0.59018,-0.17556 0.583988,-0.1896 0.577611,-0.20344 0.571032,-0.217093 0.564259,-0.230541 1.1074,-0.500648 1.07795,-0.552093 1.04693,-0.601965 1.01433,-0.65028 0.98016,-0.697 0.94442,-0.74217 0.90712,-0.78577 0.86823,-0.82778 0.82778,-0.86823 0.78575,-0.90712 0.7422,-0.94442 0.697,-0.98016 0.6503,-1.01433 0.6019,-1.04691 0.5521,-1.078 0.5007,-1.1074 0.2305,-0.5642 0.2171,-0.5711 0.2034,-0.5776 0.1896,-0.584 0.1756,-0.5901 0.1613,-0.5962 0.1469,-0.602 0.1323,-0.6075 0.1174,-0.613 0.1024,-0.6181 0.0872,-0.6232 0.0718,-0.628 0.0562,-0.6326 0.0404,-0.637 0.0243,-0.6412 0.0082,-0.6453 0.6453,0.0082 0.6412,0.0243 0.637,0.0404 0.6326,0.0562 0.628,0.0718 0.6232,0.0872 0.6181,0.1024 0.613,0.1174 0.6075,0.1323 0.602,0.1469 0.5962,0.1613 0.5901,0.1756 0.584,0.1896 0.5776,0.2034 0.5711,0.2171 0.5642,0.2305 1.1074,0.5007 1.078,0.5521 1.0469,0.6019 1.0143,0.6503 0.9802,0.697 0.9444,0.7422 0.9071,0.7857 0.8683,0.8278 0.8278,0.8683 0.7857,0.9071 0.7422,0.9444 0.697,0.9802 0.6503,1.0143 0.6019,1.04692 0.5521,1.07795 0.5007,1.1074 0.2305,0.56426 0.2171,0.57103 0.2034,0.57761 0.1896,0.58399 0.1756,0.59018 0.1613,0.59617 0.1469,0.60196 0.1323,0.60756 0.1174,0.61296 0.1024,0.61816 0.0872,0.623165 0.0718,0.62798 0.0562,0.632595 0.0404,0.63701 0.0243,0.64124 0.0082,0.64526 -0.0082,0.64526 -0.0243,0.64124 -0.0404,0.63701 -0.0562,0.63259 -0.0718,0.62798 -0.0872,0.62317 -0.1024,0.61816 -0.1174,0.61296 -0.1323,0.60756 -0.1469,0.60196 -0.1613,0.59617 -0.1756,0.59018 -0.1896,0.58396 -0.2034,0.5776 -0.2171,0.5711 -0.2305,0.5642 -0.5007,1.1074 -0.5521,1.078 -0.6019,1.0469 -0.6503,1.0143 -0.697,0.9802 -0.7422,0.9444 -0.7857,0.9071 -0.8278,0.8683 -0.8683,0.8278 -0.9071,0.7857 -0.9444,0.7422 -0.9802,0.697 -1.0143,0.6503 -1.0469,0.6019 -1.078,0.5521 -1.1074,0.5007 -0.5642,0.2305 -0.5711,0.2171 -0.5776,0.2034 -0.584,0.1896 -0.5901,0.1756 -0.5962,0.1613 -0.602,0.1469 -0.6075,0.1323 -0.613,0.1174 -0.6181,0.1024 -0.6232,0.0872 -0.628,0.0718 -0.6326,0.0562 -0.637,0.0404 -0.6412,0.0243 -0.6453,0.0082 H 17.892583"
     id="obstacle"
     sodipodi:nodetypes="ccscscc" />
  <path
     style="fill:none;stroke:#1a5fb4;stroke-width:0.278335;stroke-linejoin:round;stroke-dasharray:none;stroke-opacity:1"
     d="m 10.702113,51.970505 -1.4669998,-2.8607 -1.29376,-3.3858 -0.94757,-3.8392 -0.2898,-2.0671 -0.1385,-2.1534 0.0346,-2.2309 0.2293,-2.299211 0.4455,-2.35863 0.68352,-2.40905 0.94302,-2.45049 1.2241798,-2.48294 1.52697,-2.5064 1.85137,-2.52087 1.42979,-1.60568 1.63496,-1.5112 1.826713,-1.41653 2.005047,-1.3216 2.16998,-1.2265 2.32148,-1.1311 5.04377,-1.9753997 5.4889,-1.5915 5.8266,-1.2058 6.057,-0.8185 6.18,-0.4295 6.1958,-0.0386 6.1042,0.3539 5.9053,0.748 5.5991,1.144 5.1855,1.5417 4.6646,1.941 2.1035,1.1207997 1.933,1.2213 1.7491,1.322 1.5518,1.4229 2.6928,2.87281 2.2955,2.73275 1.916297,2.60476 1.5552,2.488819 1.2121,2.384951 0.887,2.29313 0.58,2.21339 0.2909,2.145691 0.0201,2.0901 -0.2329,2.0465 -0.4678,2.015 -0.6845,1.9955 -0.8834,1.9882 -1.0641,1.9929 -2.598397,4.048"
     id="path"
     inkscape:label="path"
     sodipodi:nodetypes="cszc" />
  <path
     id="shadow"
     style="vector-effect:none;fill:#cbcbcb;stroke-width:0.7;stroke-linejoin:round;marker-start:url(#marker32);stop-color:#000000"
     inkscape:label="shadow"
     d="m 44.48836,62.348563 h 10.308497 v 7.156313 H 44.48836 Z" />
  <path
     style="display:inline;opacity:0.6;fill:none;fill-opacity:1;stroke:#1a5fb4;stroke-width:0.3;stroke-dasharray:none;stroke-dashoffset:0;stroke-opacity:1"
     d="M 49.32799,27.868563 32.13769,24.352304"
     id="near"
     inkscape:label="near" />
  <path
     style="display:inline;opacity:0.6;fill:none;fill-opacity:1;stroke:#1a5fb4;stroke-width:0.3;stroke-dasharray:0.3, 0.6;stroke-dashoffset:0;stroke-opacity:1"
     d="M 79.102317,33.958871 49.32799,27.868563"
     id="far"
     inkscape:label="far" />
  <g
     id="robot"
     style="display:inline;stroke-width:0.4;stroke-dasharray:none"
     transform="matrix(0.63999999,0,0,0.63999999,34.029374,25.391899)"
     inkscape:label="robot">
    <circle
       style="display:inline;fill:#c3dbfa;fill-opacity:1;stroke:#1a5fb4;stroke-width:0.4;stroke-dasharray:none"
       id="path6-40"
       cx="21.164373"
       cy="15.437799"
       r="2.186522"
       inkscape:label="path6-40" />
    <circle
       style="display:inline;fill:#1a5fb4;fill-opacity:1;stroke:#1a5fb4;stroke-width:0.4;stroke-dasharray:none;stroke-opacity:1"
       id="path6-4-2"
       cx="21.164373"
       cy="15.437799"
       r="0.5" />
  </g>
  <path
     id="env"
     style="fill:none;stroke:#888888;stroke-width:0.600001;stroke-linejoin:round"
     d="M 0,0 H 109.99999 V 80 H 0 Z" />
</svg>
